NotoSansMandaic-Regular.ufo
<glyph name="uni0640" format="2">
  <advance width="375"/>
  <unicode hex="0640"/>
  <outline>
    <contour>
      <point x="0" y="0" type="curve" smooth="yes"/>
      <point x="375" y="0" type="line"/>
      <point x="375" y="76" type="line"/>
      <point x="0" y="76" type="line" smooth="yes"/>
      <point x="-21" y="76"/>
      <point x="-39" y="62"/>
      <point x="-39" y="38" type="curve" smooth="yes"/>
      <point x="-39" y="14"/>
      <point x="-21" y="0"/>
    </contour>
  </outline>
</glyph>
<glyph name="uni0840" format="2">
  <advance width="534"/>
  <unicode hex="0840"/>
  <anchor x="267" y="-88" name="bottom"/>
  <outline>
    <contour>
      <point x="268" y="-46" type="curve" smooth="yes"/>
      <point x="383" y="-46"/>
      <point x="466" y="27"/>
      <point x="466" y="133" type="curve" smooth="yes"/>
      <point x="466" y="236"/>
      <point x="395" y="328"/>
      <point x="276" y="328" type="curve" smooth="yes"/>
      <point x="151" y="328"/>
      <point x="68" y="229"/>
      <point x="68" y="118" type="curve" smooth="yes"/>
      <point x="68" y="22"/>
      <point x="136" y="-46"/>
    </contour>
    <contour>
      <point x="268" y="30" type="curve" smooth="yes"/>
      <point x="190" y="30"/>
      <point x="140" y="58"/>
      <point x="140" y="128" type="curve" smooth="yes"/>
      <point x="140" y="197"/>
      <point x="202" y="255"/>
      <point x="276" y="255" type="curve" smooth="yes"/>
      <point x="346" y="255"/>
      <point x="395" y="207"/>
      <point x="395" y="133" type="curve" smooth="yes"/>
      <point x="395" y="58"/>
      <point x="336" y="30"/>
    </contour>
  </outline>
</glyph>
<glyph name="uni0841" format="2">
  <advance width="894"/>
  <unicode hex="0841"/>
  <anchor x="423" y="-49" name="bottom"/>
  <outline>
    <contour>
      <point x="49" y="0" type="line"/>
      <point x="845" y="0" type="line"/>
      <point x="845" y="76" type="line"/>
      <point x="536" y="76" type="line"/>
      <point x="536" y="237" type="line"/>
      <point x="574" y="237" type="line" smooth="yes"/>
      <point x="736" y="237"/>
      <point x="793" y="294"/>
      <point x="793" y="409" type="curve" smooth="yes"/>
      <point x="793" y="434"/>
      <point x="790" y="479"/>
      <point x="784" y="500" type="curve"/>
      <point x="714" y="481" type="line"/>
      <point x="720" y="445"/>
      <point x="721" y="419"/>
      <point x="721" y="401" type="curve" smooth="yes"/>
      <point x="721" y="326"/>
      <point x="683" y="311"/>
      <point x="551" y="311" type="curve" smooth="yes"/>
      <point x="292" y="311" type="line"/>
      <point x="321" y="334"/>
      <point x="354" y="372"/>
      <point x="368" y="389" type="curve" smooth="yes"/>
      <point x="430" y="462" type="line"/>
      <point x="375" y="498" type="line"/>
      <point x="269" y="374" type="line" smooth="yes"/>
      <point x="248" y="349"/>
      <point x="216" y="313"/>
      <point x="200" y="299" type="curve"/>
      <point x="200" y="237" type="line"/>
      <point x="462" y="237" type="line"/>
      <point x="462" y="76" type="line"/>
      <point x="49" y="76" type="line"/>
    </contour>
  </outline>
</glyph>
<glyph name="uni0842" format="2">
  <advance width="477"/>
  <unicode hex="0842"/>
  <anchor x="215" y="-49" name="bottom"/>
  <outline>
    <contour>
      <point x="49" y="0" type="line"/>
      <point x="428" y="0" type="line"/>
      <point x="428" y="75" type="line"/>
      <point x="356" y="152"/>
      <point x="224" y="316"/>
      <point x="187" y="423" type="curve"/>
      <point x="201" y="421"/>
      <point x="222" y="420"/>
      <point x="235" y="420" type="curve" smooth="yes"/>
      <point x="351" y="420"/>
      <point x="405" y="474"/>
      <point x="405" y="554" type="curve" smooth="yes"/>
      <point x="405" y="635"/>
      <point x="352" y="714"/>
      <point x="256" y="714" type="curve" smooth="yes"/>
      <point x="145" y="714"/>
      <point x="97" y="604"/>
      <point x="97" y="520" type="curve" smooth="yes"/>
      <point x="97" y="356"/>
      <point x="231" y="192"/>
      <point x="328" y="76" type="curve"/>
      <point x="49" y="76" type="line"/>
    </contour>
    <contour>
      <point x="229" y="487" type="curve" smooth="yes"/>
      <point x="220" y="487"/>
      <point x="190" y="488"/>
      <point x="174" y="493" type="curve"/>
      <point x="172" y="501"/>
      <point x="171" y="511"/>
      <point x="171" y="525" type="curve" smooth="yes"/>
      <point x="171" y="588"/>
      <point x="202" y="643"/>
      <point x="256" y="643" type="curve" smooth="yes"/>
      <point x="305" y="643"/>
      <point x="333" y="604"/>
      <point x="333" y="557" type="curve" smooth="yes"/>
      <point x="333" y="520"/>
      <point x="308" y="487"/>
    </contour>
  </outline>
</glyph>
<glyph name="uni0843" format="2">
  <advance width="662"/>
  <unicode hex="0843"/>
  <anchor x="352" y="-49" name="bottom"/>
  <outline>
    <contour>
      <point x="49" y="0" type="line"/>
      <point x="579" y="0" type="line"/>
      <point x="579" y="493" type="line"/>
      <point x="505" y="493" type="line"/>
      <point x="505" y="311" type="line"/>
      <point x="292" y="311" type="line"/>
      <point x="292" y="493" type="line"/>
      <point x="219" y="493" type="line"/>
      <point x="219" y="237" type="line"/>
      <point x="505" y="237" type="line"/>
      <point x="505" y="76" type="line"/>
      <point x="49" y="76" type="line"/>
    </contour>
  </outline>
</glyph>
<glyph name="uni0844" format="2">
  <advance width="901"/>
  <unicode hex="0844"/>
  <anchor x="564" y="-49" name="bottom"/>
  <outline>
    <contour>
      <point x="49" y="0" type="line"/>
      <point x="186" y="0" type="line" smooth="yes"/>
      <point x="265" y="0"/>
      <point x="323" y="24"/>
      <point x="351" y="60" type="curve"/>
      <point x="372" y="24"/>
      <point x="409" y="0"/>
      <point x="466" y="0" type="curve" smooth="yes"/>
      <point x="518" y="0"/>
      <point x="555" y="24"/>
      <point x="580" y="60" type="curve"/>
      <point x="596" y="28"/>
      <point x="626" y="0"/>
      <point x="687" y="0" type="curve" smooth="yes"/>
      <point x="785" y="0"/>
      <point x="837" y="75"/>
      <point x="837" y="170" type="curve" smooth="yes"/>
      <point x="837" y="189"/>
      <point x="835" y="209"/>
      <point x="831" y="229" type="curve"/>
      <point x="765" y="215" type="line"/>
      <point x="766" y="205"/>
      <point x="767" y="195"/>
      <point x="767" y="185" type="curve" smooth="yes"/>
      <point x="767" y="132"/>
      <point x="750" y="76"/>
      <point x="681" y="76" type="curve" smooth="yes"/>
      <point x="649" y="76"/>
      <point x="620" y="95"/>
      <point x="616" y="131" type="curve"/>
      <point x="619" y="146"/>
      <point x="620" y="157"/>
      <point x="620" y="174" type="curve" smooth="yes"/>
      <point x="620" y="181"/>
      <point x="620" y="194"/>
      <point x="619" y="201" type="curve"/>
      <point x="551" y="193" type="line"/>
      <point x="551" y="126"/>
      <point x="529" y="76"/>
      <point x="461" y="76" type="curve" smooth="yes"/>
      <point x="430" y="76"/>
      <point x="397" y="94"/>
      <point x="391" y="135" type="curve"/>
      <point x="393" y="147"/>
      <point x="394" y="161"/>
      <point x="394" y="174" type="curve" smooth="yes"/>
      <point x="394" y="181"/>
      <point x="394" y="189"/>
      <point x="393" y="196" type="curve"/>
      <point x="326" y="188" type="line"/>
      <point x="323" y="121"/>
      <point x="296" y="76"/>
      <point x="195" y="76" type="curve" smooth="yes"/>
      <point x="49" y="76" type="line"/>
    </contour>
  </outline>
</glyph>
<glyph name="uni0845" format="2">
  <advance width="412"/>
  <unicode hex="0845"/>
  <anchor x="171" y="-49" name="bottom"/>
  <outline>
    <contour>
      <point x="49" y="0" type="line"/>
      <point x="178" y="0" type="line" smooth="yes"/>
      <point x="284" y="0"/>
      <point x="333" y="33"/>
      <point x="333" y="120" type="curve" smooth="yes"/>
      <point x="333" y="159"/>
      <point x="320" y="250"/>
      <point x="264" y="337" type="curve"/>
      <point x="203" y="293" type="line"/>
      <point x="238" y="232"/>
      <point x="260" y="162"/>
      <point x="260" y="125" type="curve" smooth="yes"/>
      <point x="260" y="81"/>
      <point x="234" y="76"/>
      <point x="186" y="76" type="curve" smooth="yes"/>
      <point x="49" y="76" type="line"/>
    </contour>
  </outline>
</glyph>
<glyph name="uni0846" format="2">
  <advance width="249"/>
  <unicode hex="0846"/>
  <anchor x="124" y="-189" name="bottom"/>
  <outline>
    <contour>
      <point x="88" y="-159" type="line"/>
      <point x="161" y="-159" type="line"/>
      <point x="161" y="694" type="line"/>
      <point x="88" y="694" type="line"/>
    </contour>
  </outline>
</glyph>
<glyph name="uni0847" format="2">
  <advance width="780"/>
  <unicode hex="0847"/>
  <anchor x="394" y="-49" name="bottom"/>
  <outline>
    <contour>
      <point x="160" y="-5" type="curve" smooth="yes"/>
      <point x="241" y="-5"/>
      <point x="460" y="-1"/>
      <point x="536" y="0" type="curve" smooth="yes"/>
      <point x="644" y="2"/>
      <point x="711" y="26"/>
      <point x="711" y="104" type="curve" smooth="yes"/>
      <point x="711" y="239"/>
      <point x="630" y="337"/>
      <point x="501" y="337" type="curve" smooth="yes"/>
      <point x="400" y="337"/>
      <point x="220" y="277"/>
      <point x="128" y="207" type="curve" smooth="yes"/>
      <point x="82" y="172"/>
      <point x="59" y="129"/>
      <point x="59" y="88" type="curve" smooth="yes"/>
      <point x="59" y="12"/>
      <point x="120" y="-5"/>
    </contour>
    <contour>
      <point x="175" y="71" type="curve" smooth="yes"/>
      <point x="147" y="71"/>
      <point x="133" y="83"/>
      <point x="133" y="103" type="curve" smooth="yes"/>
      <point x="133" y="120"/>
      <point x="147" y="134"/>
      <point x="164" y="147" type="curve" smooth="yes"/>
      <point x="230" y="198"/>
      <point x="421" y="264"/>
      <point x="490" y="264" type="curve" smooth="yes"/>
      <point x="553" y="264"/>
      <point x="603" y="235"/>
      <point x="625" y="165" type="curve" smooth="yes"/>
      <point x="629" y="152"/>
      <point x="633" y="137"/>
      <point x="633" y="121" type="curve" smooth="yes"/>
      <point x="633" y="78"/>
      <point x="584" y="76"/>
      <point x="557" y="76" type="curve" smooth="yes"/>
      <point x="437" y="74"/>
      <point x="208" y="71"/>
    </contour>
  </outline>
</glyph>
<glyph name="uni0848" format="2">
  <advance width="676"/>
  <unicode hex="0848"/>
  <anchor x="272" y="-49" name="bottom"/>
  <outline>
    <contour>
      <point x="39" y="0" type="line"/>
      <point x="601" y="0" type="line"/>
      <point x="601" y="76" type="line"/>
      <point x="485" y="76" type="line"/>
      <point x="598" y="381" type="line" smooth="yes"/>
      <point x="626" y="458"/>
      <point x="651" y="533"/>
      <point x="651" y="589" type="curve" smooth="yes"/>
      <point x="651" y="670"/>
      <point x="608" y="724"/>
      <point x="529" y="724" type="curve" smooth="yes"/>
      <point x="449" y="724"/>
      <point x="399" y="663"/>
      <point x="370" y="589" type="curve" smooth="yes"/>
      <point x="169" y="76" type="line"/>
      <point x="39" y="76" type="line"/>
    </contour>
    <contour>
      <point x="249" y="76" type="line"/>
      <point x="439" y="562" type="line" smooth="yes"/>
      <point x="459" y="612"/>
      <point x="484" y="651"/>
      <point x="524" y="651" type="curve" smooth="yes"/>
      <point x="566" y="651"/>
      <point x="578" y="617"/>
      <point x="578" y="586" type="curve" smooth="yes"/>
      <point x="578" y="537"/>
      <point x="546" y="452"/>
      <point x="526" y="399" type="curve" smooth="yes"/>
      <point x="402" y="76" type="line"/>
    </contour>
  </outline>
</glyph>
<glyph name="uni0849" format="2">
  <advance width="442"/>
  <unicode hex="0849"/>
  <anchor x="229" y="-49" name="bottom"/>
  <outline>
    <contour>
      <point x="125" y="0" type="curve" smooth="yes"/>
      <point x="394" y="0" type="line"/>
      <point x="394" y="76" type="line"/>
      <point x="130" y="76" type="line"/>
      <point x="143" y="125"/>
      <point x="238" y="240"/>
      <point x="300" y="295" type="curve"/>
      <point x="254" y="339" type="line"/>
      <point x="178" y="280"/>
      <point x="59" y="145"/>
      <point x="59" y="63" type="curve" smooth="yes"/>
      <point x="59" y="17"/>
      <point x="83" y="0"/>
    </contour>
  </outline>
</glyph>
<glyph name="uni084A" format="2">
  <advance width="671"/>
  <unicode hex="084A"/>
  <anchor x="338" y="-380" name="bottom"/>
  <outline>
    <contour>
      <point x="313" y="-361" type="curve"/>
      <point x="365" y="-361" type="line"/>
      <point x="448" y="-275"/>
      <point x="554" y="-140"/>
      <point x="606" y="-3" type="curve" smooth="yes"/>
      <point x="610" y="9"/>
      <point x="612" y="21"/>
      <point x="612" y="30" type="curve" smooth="yes"/>
      <point x="612" y="63"/>
      <point x="588" y="76"/>
      <point x="562" y="76" type="curve" smooth="yes"/>
      <point x="391" y="76" type="line"/>
      <point x="396" y="115"/>
      <point x="465" y="220"/>
      <point x="557" y="292" type="curve"/>
      <point x="509" y="339" type="line"/>
      <point x="438" y="291"/>
      <point x="323" y="151"/>
      <point x="323" y="69" type="curve" smooth="yes"/>
      <point x="323" y="19"/>
      <point x="355" y="0"/>
      <point x="397" y="0" type="curve" smooth="yes"/>
      <point x="531" y="0" type="line"/>
      <point x="491" y="-94"/>
      <point x="393" y="-233"/>
      <point x="349" y="-281" type="curve"/>
      <point x="246" y="-89"/>
      <point x="184" y="70"/>
      <point x="137" y="247" type="curve"/>
      <point x="68" y="228" type="line"/>
      <point x="102" y="76"/>
      <point x="152" y="-45"/>
      <point x="209" y="-168" type="curve" smooth="yes"/>
      <point x="235" y="-225"/>
      <point x="275" y="-299"/>
    </contour>
  </outline>
</glyph>
<glyph name="uni084B" format="2">
  <advance width="460"/>
  <unicode hex="084B"/>
  <anchor x="205" y="-49" name="bottom"/>
  <outline>
    <contour>
      <point x="49" y="0" type="line"/>
      <point x="362" y="0" type="line"/>
      <point x="362" y="694" type="line"/>
      <point x="289" y="694" type="line"/>
      <point x="289" y="76" type="line"/>
      <point x="49" y="76" type="line"/>
    </contour>
  </outline>
</glyph>
<glyph name="uni084D" format="2">
  <advance width="587"/>
  <unicode hex="084D"/>
  <anchor x="276" y="-380" name="bottom"/>
  <outline>
    <contour>
      <point x="251" y="-361" type="curve"/>
      <point x="303" y="-361" type="line"/>
      <point x="402" y="-231"/>
      <point x="519" y="26"/>
      <point x="519" y="172" type="curve" smooth="yes"/>
      <point x="519" y="184"/>
      <point x="518" y="223"/>
      <point x="513" y="247" type="curve"/>
      <point x="444" y="237" type="line"/>
      <point x="446" y="210"/>
      <point x="447" y="184"/>
      <point x="447" y="157" type="curve"/>
      <point x="442" y="44"/>
      <point x="347" y="-167"/>
      <point x="288" y="-266" type="curve"/>
      <point x="193" y="-41"/>
      <point x="174" y="63"/>
      <point x="138" y="247" type="curve"/>
      <point x="68" y="234" type="line"/>
      <point x="95" y="38"/>
      <point x="162" y="-179"/>
    </contour>
  </outline>
</glyph>
<glyph name="uni084E" format="2">
  <advance width="993"/>
  <unicode hex="084E"/>
  <anchor x="423" y="-49" name="bottom"/>
  <outline>
    <contour>
      <point x="49" y="0" type="line"/>
      <point x="171" y="0" type="line" smooth="yes"/>
      <point x="251" y="0"/>
      <point x="310" y="24"/>
      <point x="337" y="61" type="curve"/>
      <point x="374" y="20"/>
      <point x="422" y="0"/>
      <point x="513" y="0" type="curve" smooth="yes"/>
      <point x="749" y="0" type="line" smooth="yes"/>
      <point x="867" y="0"/>
      <point x="924" y="33"/>
      <point x="924" y="122" type="curve" smooth="yes"/>
      <point x="924" y="228"/>
      <point x="859" y="327"/>
      <point x="727" y="327" type="curve" smooth="yes"/>
      <point x="599" y="327"/>
      <point x="509" y="233"/>
      <point x="438" y="85" type="curve"/>
      <point x="412" y="93"/>
      <point x="384" y="106"/>
      <point x="376" y="135" type="curve"/>
      <point x="378" y="148"/>
      <point x="379" y="161"/>
      <point x="379" y="174" type="curve" smooth="yes"/>
      <point x="379" y="181"/>
      <point x="379" y="189"/>
      <point x="378" y="196" type="curve"/>
      <point x="311" y="188" type="line"/>
      <point x="309" y="121"/>
      <point x="281" y="76"/>
      <point x="180" y="76" type="curve" smooth="yes"/>
      <point x="49" y="76" type="line"/>
    </contour>
    <contour>
      <point x="515" y="76" type="line"/>
      <point x="562" y="177"/>
      <point x="643" y="253"/>
      <point x="729" y="253" type="curve" smooth="yes"/>
      <point x="787" y="253"/>
      <point x="851" y="217"/>
      <point x="851" y="124" type="curve" smooth="yes"/>
      <point x="851" y="82"/>
      <point x="805" y="76"/>
      <point x="777" y="76" type="curve" smooth="yes"/>
    </contour>
  </outline>
</glyph>
<glyph name="uni084F" format="2">
  <advance width="854"/>
  <unicode hex="084F"/>
  <anchor x="397" y="-49" name="bottom"/>
  <outline>
    <contour>
      <point x="49" y="0" type="line"/>
      <point x="612" y="0" type="line" smooth="yes"/>
      <point x="705" y="0"/>
      <point x="775" y="48"/>
      <point x="775" y="157" type="curve" smooth="yes"/>
      <point x="775" y="266"/>
      <point x="705" y="311"/>
      <point x="612" y="311" type="curve" smooth="yes"/>
      <point x="326" y="311" type="line"/>
      <point x="363" y="329"/>
      <point x="409" y="357"/>
      <point x="424" y="368" type="curve" smooth="yes"/>
      <point x="536" y="449" type="line"/>
      <point x="491" y="498" type="line"/>
      <point x="418" y="446"/>
      <point x="348" y="394"/>
      <point x="275" y="342" type="curve" smooth="yes"/>
      <point x="250" y="324"/>
      <point x="217" y="302"/>
      <point x="196" y="292" type="curve"/>
      <point x="196" y="237" type="line"/>
      <point x="612" y="237" type="line" smooth="yes"/>
      <point x="676" y="237"/>
      <point x="702" y="202"/>
      <point x="702" y="157" type="curve" smooth="yes"/>
      <point x="702" y="112"/>
      <point x="676" y="76"/>
      <point x="612" y="76" type="curve" smooth="yes"/>
      <point x="49" y="76" type="line"/>
    </contour>
  </outline>
</glyph>
<glyph name="uni0850" format="2">
  <advance width="720"/>
  <unicode hex="0850"/>
  <anchor x="352" y="-381" name="bottom"/>
  <outline>
    <contour>
      <point x="327" y="-381" type="curve"/>
      <point x="378" y="-381" type="line"/>
      <point x="454" y="-292"/>
      <point x="546" y="-186"/>
      <point x="613" y="-16" type="curve" smooth="yes"/>
      <point x="640" y="52"/>
      <point x="651" y="107"/>
      <point x="651" y="167" type="curve" smooth="yes"/>
      <point x="651" y="248"/>
      <point x="597" y="330"/>
      <point x="488" y="330" type="curve" smooth="yes"/>
      <point x="377" y="330"/>
      <point x="316" y="223"/>
      <point x="316" y="143" type="curve" smooth="yes"/>
      <point x="316" y="64"/>
      <point x="356" y="0"/>
      <point x="476" y="0" type="curve" smooth="yes"/>
      <point x="542" y="0" type="line"/>
      <point x="497" y="-123"/>
      <point x="404" y="-243"/>
      <point x="359" y="-296" type="curve"/>
      <point x="231" y="-53"/>
      <point x="189" y="70"/>
      <point x="137" y="247" type="curve"/>
      <point x="68" y="227" type="line"/>
      <point x="100" y="96"/>
      <point x="160" y="-65"/>
      <point x="221" y="-186" type="curve" smooth="yes"/>
      <point x="249" y="-241"/>
      <point x="288" y="-313"/>
    </contour>
    <contour>
      <point x="478" y="76" type="line" smooth="yes"/>
      <point x="398" y="76"/>
      <point x="385" y="119"/>
      <point x="385" y="154" type="curve" smooth="yes"/>
      <point x="385" y="197"/>
      <point x="424" y="258"/>
      <point x="486" y="258" type="curve" smooth="yes"/>
      <point x="536" y="258"/>
      <point x="580" y="224"/>
      <point x="580" y="157" type="curve" smooth="yes"/>
      <point x="580" y="136"/>
      <point x="577" y="101"/>
      <point x="568" y="76" type="curve"/>
    </contour>
  </outline>
</glyph>
<glyph name="uni0851" format="2">
  <advance width="1023"/>
  <unicode hex="0851"/>
  <anchor x="276" y="-380" name="bottom"/>
  <outline>
    <contour>
      <point x="251" y="-361" type="curve"/>
      <point x="303" y="-361" type="line"/>
      <point x="373" y="-273"/>
      <point x="437" y="-140"/>
      <point x="479" y="-10" type="curve" smooth="yes"/>
      <point x="485" y="7"/>
      <point x="490" y="24"/>
      <point x="494" y="40" type="curve"/>
      <point x="512" y="16"/>
      <point x="539" y="0"/>
      <point x="583" y="0" type="curve" smooth="yes"/>
      <point x="635" y="0"/>
      <point x="672" y="24"/>
      <point x="697" y="60" type="curve"/>
      <point x="714" y="29"/>
      <point x="743" y="0"/>
      <point x="804" y="0" type="curve" smooth="yes"/>
      <point x="902" y="0"/>
      <point x="955" y="75"/>
      <point x="955" y="170" type="curve" smooth="yes"/>
      <point x="955" y="189"/>
      <point x="953" y="209"/>
      <point x="948" y="229" type="curve"/>
      <point x="882" y="214" type="line"/>
      <point x="883" y="200"/>
      <point x="884" y="187"/>
      <point x="884" y="174" type="curve" smooth="yes"/>
      <point x="884" y="119"/>
      <point x="862" y="76"/>
      <point x="798" y="76" type="curve" smooth="yes"/>
      <point x="767" y="76"/>
      <point x="738" y="96"/>
      <point x="732" y="126" type="curve"/>
      <point x="736" y="142"/>
      <point x="737" y="157"/>
      <point x="737" y="174" type="curve" smooth="yes"/>
      <point x="737" y="181"/>
      <point x="737" y="194"/>
      <point x="736" y="201" type="curve"/>
      <point x="668" y="193" type="line"/>
      <point x="668" y="126"/>
      <point x="646" y="76"/>
      <point x="579" y="76" type="curve" smooth="yes"/>
      <point x="547" y="76"/>
      <point x="516" y="94"/>
      <point x="509" y="133" type="curve"/>
      <point x="509" y="164"/>
      <point x="508" y="182"/>
      <point x="503" y="202" type="curve"/>
      <point x="437" y="192" type="line"/>
      <point x="438" y="176"/>
      <point x="438" y="146"/>
      <point x="438" y="138" type="curve"/>
      <point x="430" y="19"/>
      <point x="346" y="-177"/>
      <point x="287" y="-271" type="curve"/>
      <point x="213" y="-88"/>
      <point x="170" y="63"/>
      <point x="138" y="247" type="curve"/>
      <point x="68" y="234" type="line"/>
      <point x="96" y="17"/>
      <point x="176" y="-220"/>
    </contour>
  </outline>
</glyph>
<glyph name="uni0852" format="2">
  <advance width="862"/>
  <unicode hex="0852"/>
  <anchor x="438" y="-49" name="bottom"/>
  <outline>
    <contour>
      <point x="49" y="0" type="line"/>
      <point x="779" y="0" type="line"/>
      <point x="779" y="487" type="line"/>
      <point x="706" y="487" type="line"/>
      <point x="706" y="311" type="line"/>
      <point x="301" y="311" type="line"/>
      <point x="327" y="332"/>
      <point x="354" y="359"/>
      <point x="366" y="372" type="curve" smooth="yes"/>
      <point x="444" y="461" type="line"/>
      <point x="389" y="498" type="line"/>
      <point x="266" y="359" type="line" smooth="yes"/>
      <point x="245" y="335"/>
      <point x="216" y="305"/>
      <point x="200" y="292" type="curve"/>
      <point x="200" y="237" type="line"/>
      <point x="351" y="237" type="line" smooth="yes"/>
      <point x="417" y="237"/>
      <point x="441" y="200"/>
      <point x="441" y="157" type="curve" smooth="yes"/>
      <point x="441" y="112"/>
      <point x="416" y="76"/>
      <point x="346" y="76" type="curve" smooth="yes"/>
      <point x="49" y="76" type="line"/>
    </contour>
    <contour>
      <point x="467" y="76" type="line"/>
      <point x="499" y="93"/>
      <point x="514" y="120"/>
      <point x="514" y="157" type="curve" smooth="yes"/>
      <point x="514" y="198"/>
      <point x="497" y="223"/>
      <point x="472" y="237" type="curve"/>
      <point x="706" y="237" type="line"/>
      <point x="706" y="76" type="line"/>
    </contour>
  </outline>
</glyph>
<glyph name="uni0855" format="2">
  <advance width="642"/>
  <unicode hex="0855"/>
  <anchor x="172" y="-49" name="bottom"/>
  <outline>
    <contour>
      <point x="485" y="-159" type="line"/>
      <point x="559" y="-159" type="line"/>
      <point x="559" y="493" type="line"/>
      <point x="485" y="493" type="line"/>
      <point x="485" y="340" type="line"/>
      <point x="451" y="303"/>
      <point x="386" y="285"/>
      <point x="320" y="285" type="curve" smooth="yes"/>
      <point x="311" y="285"/>
      <point x="302" y="285"/>
      <point x="292" y="287" type="curve"/>
      <point x="284" y="303"/>
      <point x="275" y="319"/>
      <point x="264" y="337" type="curve"/>
      <point x="203" y="293" type="line"/>
      <point x="238" y="232"/>
      <point x="260" y="175"/>
      <point x="260" y="138" type="curve" smooth="yes"/>
      <point x="260" y="95"/>
      <point x="238" y="76"/>
      <point x="175" y="76" type="curve" smooth="yes"/>
      <point x="49" y="76" type="line"/>
      <point x="49" y="0" type="line"/>
      <point x="173" y="0" type="line" smooth="yes"/>
      <point x="262" y="0"/>
      <point x="333" y="33"/>
      <point x="333" y="132" type="curve" smooth="yes"/>
      <point x="333" y="151"/>
      <point x="330" y="180"/>
      <point x="321" y="213" type="curve"/>
      <point x="326" y="213"/>
      <point x="331" y="213"/>
      <point x="334" y="213" type="curve" smooth="yes"/>
      <point x="396" y="213"/>
      <point x="443" y="228"/>
      <point x="485" y="258" type="curve"/>
    </contour>
  </outline>
</glyph>
<glyph name="uni0856" format="2">
  <advance width="763"/>
  <unicode hex="0856"/>
  <anchor x="305" y="-49" name="bottom"/>
  <outline>
    <contour>
      <point x="134" y="0" type="curve" smooth="yes"/>
      <point x="714" y="0" type="line"/>
      <point x="714" y="76" type="line"/>
      <point x="584" y="76" type="line" smooth="yes"/>
      <point x="540" y="76"/>
      <point x="520" y="81"/>
      <point x="520" y="112" type="curve" smooth="yes"/>
      <point x="520" y="153"/>
      <point x="607" y="245"/>
      <point x="670" y="295" type="curve"/>
      <point x="619" y="339" type="line"/>
      <point x="545" y="282"/>
      <point x="447" y="183"/>
      <point x="447" y="104" type="curve" smooth="yes"/>
      <point x="447" y="95"/>
      <point x="447" y="85"/>
      <point x="449" y="76" type="curve"/>
      <point x="140" y="76" type="line"/>
      <point x="153" y="125"/>
      <point x="253" y="240"/>
      <point x="315" y="295" type="curve"/>
      <point x="264" y="339" type="line"/>
      <point x="188" y="280"/>
      <point x="68" y="145"/>
      <point x="68" y="63" type="curve" smooth="yes"/>
      <point x="68" y="17"/>
      <point x="93" y="0"/>
    </contour>
  </outline>
</glyph>
<glyph name="uni0857" format="2">
  <advance width="1133"/>
  <unicode hex="0857"/>
  <anchor x="418" y="-49" name="bottom"/>
  <outline>
    <contour>
      <point x="747" y="-381" type="curve"/>
      <point x="799" y="-381" type="line"/>
      <point x="867" y="-318"/>
      <point x="1016" y="-136"/>
      <point x="1070" y="-3" type="curve" smooth="yes"/>
      <point x="1075" y="10"/>
      <point x="1077" y="21"/>
      <point x="1077" y="30" type="curve" smooth="yes"/>
      <point x="1077" y="63"/>
      <point x="1052" y="76"/>
      <point x="1026" y="76" type="curve" smooth="yes"/>
      <point x="860" y="76" type="line"/>
      <point x="864" y="115"/>
      <point x="935" y="220"/>
      <point x="1025" y="292" type="curve"/>
      <point x="978" y="339" type="line"/>
      <point x="907" y="291"/>
      <point x="792" y="151"/>
      <point x="792" y="69" type="curve" smooth="yes"/>
      <point x="792" y="19"/>
      <point x="825" y="0"/>
      <point x="867" y="0" type="curve" smooth="yes"/>
      <point x="995" y="0" type="line"/>
      <point x="943" y="-102"/>
      <point x="831" y="-251"/>
      <point x="789" y="-294" type="curve"/>
      <point x="762" y="-215"/>
      <point x="733" y="-131"/>
      <point x="709" y="-61" type="curve" smooth="yes"/>
      <point x="661" y="79"/>
      <point x="611" y="228"/>
      <point x="561" y="333" type="curve"/>
      <point x="491" y="300" type="line"/>
      <point x="521" y="235"/>
      <point x="551" y="159"/>
      <point x="580" y="76" type="curve"/>
      <point x="137" y="76" type="line"/>
      <point x="150" y="125"/>
      <point x="250" y="240"/>
      <point x="312" y="295" type="curve"/>
      <point x="261" y="339" type="line"/>
      <point x="185" y="280"/>
      <point x="65" y="145"/>
      <point x="65" y="63" type="curve" smooth="yes"/>
      <point x="65" y="17"/>
      <point x="90" y="0"/>
      <point x="131" y="0" type="curve" smooth="yes"/>
      <point x="606" y="0" type="line"/>
      <point x="636" y="-82"/>
      <point x="704" y="-282"/>
    </contour>
  </outline>
</glyph>
<glyph name="uni0858" format="2">
  <advance width="476"/>
  <unicode hex="0858"/>
  <anchor x="180" y="-380" name="bottom"/>
  <outline>
    <contour>
      <point x="382" y="-403" type="curve"/>
      <point x="410" y="-326" type="line"/>
      <point x="341" y="-308"/>
      <point x="151" y="-244"/>
      <point x="125" y="-219" type="curve"/>
      <point x="148" y="-187"/>
      <point x="297" y="-75"/>
      <point x="387" y="-18" type="curve"/>
      <point x="387" y="47" type="line"/>
      <point x="330" y="56"/>
      <point x="186" y="85"/>
      <point x="156" y="96" type="curve"/>
      <point x="175" y="131"/>
      <point x="324" y="250"/>
      <point x="399" y="300" type="curve"/>
      <point x="360" y="361" type="line"/>
      <point x="289" y="319"/>
      <point x="166" y="220"/>
      <point x="115" y="153" type="curve" smooth="yes"/>
      <point x="98" y="130"/>
      <point x="90" y="112"/>
      <point x="90" y="84" type="curve" smooth="yes"/>
      <point x="90" y="58"/>
      <point x="104" y="32"/>
      <point x="143" y="21" type="curve" smooth="yes"/>
      <point x="178" y="11"/>
      <point x="234" y="0"/>
      <point x="277" y="-8" type="curve"/>
      <point x="183" y="-73"/>
      <point x="106" y="-126"/>
      <point x="80" y="-165" type="curve" smooth="yes"/>
      <point x="64" y="-188"/>
      <point x="57" y="-206"/>
      <point x="57" y="-233" type="curve" smooth="yes"/>
      <point x="57" y="-264"/>
      <point x="74" y="-284"/>
      <point x="104" y="-301" type="curve" smooth="yes"/>
      <point x="154" y="-330"/>
      <point x="306" y="-385"/>
    </contour>
  </outline>
</glyph>
<glyph name="uni0859" format="2">
  <unicode hex="0859"/>
  <anchor x="0" y="-49" name="_bottom"/>
  <outline>
    <contour>
      <point x="83" y="-174" type="curve" smooth="yes"/>
      <point x="108" y="-174"/>
      <point x="128" y="-158"/>
      <point x="128" y="-124" type="curve" smooth="yes"/>
      <point x="128" y="-89"/>
      <point x="108" y="-73"/>
      <point x="83" y="-73" type="curve" smooth="yes"/>
      <point x="58" y="-73"/>
      <point x="39" y="-89"/>
      <point x="39" y="-124" type="curve" smooth="yes"/>
      <point x="39" y="-158"/>
      <point x="58" y="-174"/>
    </contour>
    <contour>
      <point x="-83" y="-174" type="curve" smooth="yes"/>
      <point x="-60" y="-174"/>
      <point x="-39" y="-158"/>
      <point x="-39" y="-124" type="curve" smooth="yes"/>
      <point x="-39" y="-89"/>
      <point x="-60" y="-73"/>
      <point x="-83" y="-73" type="curve" smooth="yes"/>
      <point x="-108" y="-73"/>
      <point x="-128" y="-89"/>
      <point x="-128" y="-124" type="curve" smooth="yes"/>
      <point x="-128" y="-158"/>
      <point x="-108" y="-174"/>
    </contour>
  </outline>
</glyph>
<glyph name="uni085A" format="2">
  <unicode hex="085A"/>
  <anchor x="0" y="-49" name="_bottom"/>
  <outline>
    <contour>
      <point x="-124" y="-162" type="line"/>
      <point x="124" y="-162" type="line"/>
      <point x="124" y="-86" type="line"/>
      <point x="-124" y="-86" type="line"/>
    </contour>
  </outline>
</glyph>
<glyph name="uni085B" format="2">
  <unicode hex="085B"/>
  <anchor x="0" y="-49" name="_bottom"/>
  <outline>
    <contour>
      <point x="0" y="-174" type="curve" smooth="yes"/>
      <point x="24" y="-174"/>
      <point x="44" y="-158"/>
      <point x="44" y="-124" type="curve" smooth="yes"/>
      <point x="44" y="-89"/>
      <point x="24" y="-73"/>
      <point x="0" y="-73" type="curve" smooth="yes"/>
      <point x="-25" y="-73"/>
      <point x="-45" y="-89"/>
      <point x="-45" y="-124" type="curve" smooth="yes"/>
      <point x="-45" y="-158"/>
      <point x="-25" y="-174"/>
    </contour>
  </outline>
</glyph>
<glyph name="uni085E" format="2">
  <advance width="557"/>
  <unicode hex="085E"/>
  <outline>
    <contour>
      <point x="278" y="-148" type="curve" smooth="yes"/>
      <point x="389" y="-148"/>
      <point x="479" y="-63"/>
      <point x="479" y="52" type="curve" smooth="yes"/>
      <point x="479" y="177"/>
      <point x="389" y="252"/>
      <point x="278" y="252" type="curve" smooth="yes"/>
      <point x="168" y="252"/>
      <point x="78" y="167"/>
      <point x="78" y="52" type="curve" smooth="yes"/>
      <point x="78" y="-73"/>
      <point x="168" y="-148"/>
    </contour>
    <contour>
      <point x="278" y="-119" type="curve" smooth="yes"/>
      <point x="184" y="-119"/>
      <point x="107" y="-57"/>
      <point x="107" y="52" type="curve" smooth="yes"/>
      <point x="107" y="151"/>
      <point x="184" y="223"/>
      <point x="278" y="223" type="curve" smooth="yes"/>
      <point x="373" y="223"/>
      <point x="449" y="161"/>
      <point x="449" y="52" type="curve" smooth="yes"/>
      <point x="449" y="-47"/>
      <point x="373" y="-119"/>
    </contour>
    <contour>
      <point x="278" y="-61" type="curve" smooth="yes"/>
      <point x="340" y="-61"/>
      <point x="391" y="-10"/>
      <point x="391" y="52" type="curve" smooth="yes"/>
      <point x="391" y="119"/>
      <point x="340" y="164"/>
      <point x="278" y="164" type="curve" smooth="yes"/>
      <point x="216" y="164"/>
      <point x="166" y="114"/>
      <point x="166" y="52" type="curve" smooth="yes"/>
      <point x="166" y="-15"/>
      <point x="216" y="-61"/>
    </contour>
    <contour>
      <point x="278" y="-31" type="curve" smooth="yes"/>
      <point x="232" y="-31"/>
      <point x="195" y="1"/>
      <point x="195" y="52" type="curve" smooth="yes"/>
      <point x="195" y="98"/>
      <point x="232" y="135"/>
      <point x="278" y="135" type="curve" smooth="yes"/>
      <point x="324" y="135"/>
      <point x="361" y="103"/>
      <point x="361" y="52" type="curve" smooth="yes"/>
      <point x="361" y="6"/>
      <point x="324" y="-31"/>
    </contour>
  </outline>
</glyph>
<glyph name="uni200D" format="2">
  <unicode hex="200D"/>
  <outline>
    <contour>
      <point x="-21" y="-133" type="line"/>
      <point x="21" y="-133" type="line"/>
      <point x="21" y="535" type="line"/>
      <point x="83" y="473" type="line"/>
      <point x="109" y="500" type="line"/>
      <point x="27" y="582" type="line"/>
      <point x="109" y="663" type="line"/>
      <point x="83" y="690" type="line"/>
      <point x="0" y="607" type="line"/>
      <point x="-83" y="690" type="line"/>
      <point x="-109" y="663" type="line"/>
      <point x="-27" y="582" type="line"/>
      <point x="-109" y="500" type="line"/>
      <point x="-83" y="473" type="line"/>
      <point x="-21" y="535" type="line"/>
    </contour>
  </outline>
</glyph>
<glyph name="uni0840.Fina" format="2">
  <advance width="545"/>
  <anchor x="274" y="-49" name="bottom"/>
  <outline>
    <contour>
      <point x="164" y="0" type="curve" smooth="yes"/>
      <point x="545" y="0" type="line"/>
      <point x="545" y="76" type="line"/>
      <point x="472" y="76" type="line"/>
      <point x="469" y="228"/>
      <point x="420" y="327"/>
      <point x="292" y="327" type="curve" smooth="yes"/>
      <point x="160" y="327"/>
      <point x="63" y="213"/>
      <point x="63" y="93" type="curve" smooth="yes"/>
      <point x="63" y="20"/>
      <point x="120" y="0"/>
    </contour>
    <contour>
      <point x="173" y="76" type="line" smooth="yes"/>
      <point x="148" y="76"/>
      <point x="136" y="90"/>
      <point x="136" y="109" type="curve" smooth="yes"/>
      <point x="136" y="170"/>
      <point x="199" y="254"/>
      <point x="285" y="254" type="curve" smooth="yes"/>
      <point x="352" y="254"/>
      <point x="391" y="221"/>
      <point x="395" y="76" type="curve"/>
    </contour>
  </outline>
</glyph>
<glyph name="uni0841.Init" format="2">
  <advance width="775"/>
  <anchor x="304" y="-49" name="bottom"/>
  <outline>
    <contour>
      <point x="0" y="0" type="curve" smooth="yes"/>
      <point x="727" y="0" type="line"/>
      <point x="727" y="76" type="line"/>
      <point x="417" y="76" type="line"/>
      <point x="417" y="237" type="line"/>
      <point x="455" y="237" type="line" smooth="yes"/>
      <point x="617" y="237"/>
      <point x="674" y="294"/>
      <point x="674" y="409" type="curve" smooth="yes"/>
      <point x="674" y="434"/>
      <point x="670" y="479"/>
      <point x="665" y="500" type="curve"/>
      <point x="596" y="481" type="line"/>
      <point x="601" y="445"/>
      <point x="602" y="419"/>
      <point x="602" y="401" type="curve" smooth="yes"/>
      <point x="602" y="326"/>
      <point x="563" y="311"/>
      <point x="432" y="311" type="curve" smooth="yes"/>
      <point x="173" y="311" type="line"/>
      <point x="202" y="334"/>
      <point x="235" y="372"/>
      <point x="249" y="389" type="curve" smooth="yes"/>
      <point x="311" y="462" type="line"/>
      <point x="256" y="498" type="line"/>
      <point x="150" y="374" type="line" smooth="yes"/>
      <point x="129" y="349"/>
      <point x="97" y="313"/>
      <point x="81" y="299" type="curve"/>
      <point x="81" y="237" type="line"/>
      <point x="343" y="237" type="line"/>
      <point x="343" y="76" type="line"/>
      <point x="0" y="76" type="line" smooth="yes"/>
      <point x="-22" y="76"/>
      <point x="-40" y="62"/>
      <point x="-40" y="38" type="curve" smooth="yes"/>
      <point x="-40" y="14"/>
      <point x="-22" y="0"/>
    </contour>
  </outline>
</glyph>
<glyph name="uni0842.Fina" format="2">
  <advance width="520"/>
  <anchor x="248" y="-49" name="bottom"/>
  <outline>
    <contour>
      <point x="49" y="0" type="line"/>
      <point x="520" y="0" type="line"/>
      <point x="520" y="76" type="line"/>
      <point x="460" y="76" type="line"/>
      <point x="388" y="154"/>
      <point x="257" y="316"/>
      <point x="220" y="423" type="curve"/>
      <point x="234" y="421"/>
      <point x="255" y="420"/>
      <point x="269" y="420" type="curve" smooth="yes"/>
      <point x="384" y="420"/>
      <point x="438" y="474"/>
      <point x="438" y="554" type="curve" smooth="yes"/>
      <point x="438" y="635"/>
      <point x="385" y="714"/>
      <point x="290" y="714" type="curve" smooth="yes"/>
      <point x="178" y="714"/>
      <point x="130" y="604"/>
      <point x="130" y="520" type="curve" smooth="yes"/>
      <point x="130" y="356"/>
      <point x="265" y="192"/>
      <point x="361" y="76" type="curve"/>
      <point x="49" y="76" type="line"/>
    </contour>
    <contour>
      <point x="262" y="487" type="curve" smooth="yes"/>
      <point x="253" y="487"/>
      <point x="224" y="488"/>
      <point x="207" y="493" type="curve"/>
      <point x="205" y="501"/>
      <point x="204" y="511"/>
      <point x="204" y="525" type="curve" smooth="yes"/>
      <point x="204" y="588"/>
      <point x="235" y="643"/>
      <point x="290" y="643" type="curve" smooth="yes"/>
      <point x="338" y="643"/>
      <point x="367" y="604"/>
      <point x="367" y="557" type="curve" smooth="yes"/>
      <point x="367" y="520"/>
      <point x="341" y="487"/>
    </contour>
  </outline>
</glyph>
<glyph name="uni0842.Medi" format="2">
  <advance width="492"/>
  <anchor x="220" y="-49" name="bottom"/>
  <outline>
    <contour>
      <point x="0" y="0" type="curve" smooth="yes"/>
      <point x="492" y="0" type="line"/>
      <point x="492" y="76" type="line"/>
      <point x="433" y="76" type="line"/>
      <point x="361" y="154"/>
      <point x="229" y="316"/>
      <point x="193" y="423" type="curve"/>
      <point x="207" y="421"/>
      <point x="228" y="420"/>
      <point x="241" y="420" type="curve" smooth="yes"/>
      <point x="357" y="420"/>
      <point x="411" y="474"/>
      <point x="411" y="554" type="curve" smooth="yes"/>
      <point x="411" y="635"/>
      <point x="357" y="714"/>
      <point x="262" y="714" type="curve" smooth="yes"/>
      <point x="151" y="714"/>
      <point x="103" y="604"/>
      <point x="103" y="520" type="curve" smooth="yes"/>
      <point x="103" y="356"/>
      <point x="237" y="192"/>
      <point x="333" y="76" type="curve"/>
      <point x="0" y="76" type="line" smooth="yes"/>
      <point x="-22" y="76"/>
      <point x="-40" y="62"/>
      <point x="-40" y="38" type="curve" smooth="yes"/>
      <point x="-40" y="14"/>
      <point x="-22" y="0"/>
    </contour>
    <contour>
      <point x="234" y="487" type="curve" smooth="yes"/>
      <point x="226" y="487"/>
      <point x="196" y="488"/>
      <point x="180" y="493" type="curve"/>
      <point x="178" y="501"/>
      <point x="177" y="511"/>
      <point x="177" y="525" type="curve" smooth="yes"/>
      <point x="177" y="588"/>
      <point x="208" y="643"/>
      <point x="262" y="643" type="curve" smooth="yes"/>
      <point x="311" y="643"/>
      <point x="339" y="604"/>
      <point x="339" y="557" type="curve" smooth="yes"/>
      <point x="339" y="520"/>
      <point x="313" y="487"/>
    </contour>
  </outline>
</glyph>
<glyph name="uni0843.Fina" format="2">
  <advance width="687"/>
  <anchor x="356" y="-49" name="bottom"/>
  <outline>
    <contour>
      <point x="49" y="0" type="line"/>
      <point x="687" y="0" type="line"/>
      <point x="687" y="76" type="line"/>
      <point x="583" y="76" type="line"/>
      <point x="583" y="493" type="line"/>
      <point x="510" y="493" type="line"/>
      <point x="510" y="311" type="line"/>
      <point x="298" y="311" type="line"/>
      <point x="298" y="493" type="line"/>
      <point x="224" y="493" type="line"/>
      <point x="224" y="237" type="line"/>
      <point x="510" y="237" type="line"/>
      <point x="510" y="76" type="line"/>
      <point x="49" y="76" type="line"/>
    </contour>
  </outline>
</glyph>
<glyph name="uni0843.Init" format="2">
  <advance width="534"/>
  <anchor x="225" y="-49" name="bottom"/>
  <outline>
    <contour>
      <point x="0" y="0" type="curve" smooth="yes"/>
      <point x="451" y="0" type="line"/>
      <point x="451" y="493" type="line"/>
      <point x="377" y="493" type="line"/>
      <point x="377" y="311" type="line"/>
      <point x="165" y="311" type="line"/>
      <point x="165" y="493" type="line"/>
      <point x="92" y="493" type="line"/>
      <point x="92" y="237" type="line"/>
      <point x="377" y="237" type="line"/>
      <point x="377" y="76" type="line"/>
      <point x="0" y="76" type="line" smooth="yes"/>
      <point x="-22" y="76"/>
      <point x="-40" y="62"/>
      <point x="-40" y="38" type="curve" smooth="yes"/>
      <point x="-40" y="14"/>
      <point x="-22" y="0"/>
    </contour>
  </outline>
</glyph>
<glyph name="uni0843.Medi" format="2">
  <advance width="555"/>
  <anchor x="225" y="-49" name="bottom"/>
  <outline>
    <contour>
      <point x="0" y="0" type="curve"/>
      <point x="555" y="0" type="line"/>
      <point x="555" y="76" type="line"/>
      <point x="451" y="76" type="line"/>
      <point x="451" y="493" type="line"/>
      <point x="377" y="493" type="line"/>
      <point x="377" y="311" type="line"/>
      <point x="165" y="311" type="line"/>
      <point x="165" y="493" type="line"/>
      <point x="92" y="493" type="line"/>
      <point x="92" y="237" type="line"/>
      <point x="377" y="237" type="line"/>
      <point x="377" y="76" type="line"/>
      <point x="0" y="76" type="line" smooth="yes"/>
      <point x="-21" y="76"/>
      <point x="-40" y="62"/>
      <point x="-40" y="38" type="curve" smooth="yes"/>
      <point x="-40" y="14"/>
      <point x="-21" y="0"/>
    </contour>
  </outline>
</glyph>
<glyph name="uni0844.Fina" format="2">
  <advance width="749"/>
  <anchor x="461" y="-49" name="bottom"/>
  <outline>
    <contour>
      <point x="49" y="0" type="line"/>
      <point x="186" y="0" type="line" smooth="yes"/>
      <point x="265" y="0"/>
      <point x="323" y="23"/>
      <point x="351" y="59" type="curve"/>
      <point x="372" y="25"/>
      <point x="409" y="0"/>
      <point x="466" y="0" type="curve" smooth="yes"/>
      <point x="519" y="0"/>
      <point x="557" y="25"/>
      <point x="582" y="62" type="curve"/>
      <point x="604" y="27"/>
      <point x="649" y="0"/>
      <point x="729" y="0" type="curve" smooth="yes"/>
      <point x="749" y="0" type="line"/>
      <point x="749" y="76" type="line"/>
      <point x="732" y="76" type="line" smooth="yes"/>
      <point x="671" y="76"/>
      <point x="625" y="96"/>
      <point x="617" y="134" type="curve"/>
      <point x="619" y="147"/>
      <point x="620" y="160"/>
      <point x="620" y="174" type="curve" smooth="yes"/>
      <point x="620" y="181"/>
      <point x="620" y="194"/>
      <point x="619" y="201" type="curve"/>
      <point x="551" y="193" type="line"/>
      <point x="551" y="126"/>
      <point x="529" y="76"/>
      <point x="461" y="76" type="curve" smooth="yes"/>
      <point x="430" y="76"/>
      <point x="397" y="94"/>
      <point x="391" y="135" type="curve"/>
      <point x="393" y="147"/>
      <point x="394" y="161"/>
      <point x="394" y="174" type="curve" smooth="yes"/>
      <point x="394" y="181"/>
      <point x="394" y="189"/>
      <point x="393" y="196" type="curve"/>
      <point x="326" y="188" type="line"/>
      <point x="323" y="121"/>
      <point x="296" y="76"/>
      <point x="195" y="76" type="curve" smooth="yes"/>
      <point x="49" y="76" type="line"/>
    </contour>
  </outline>
</glyph>
<glyph name="uni0844.Fina_XShort" format="2">
  <advance width="656"/>
  <anchor x="461" y="-49" name="bottom"/>
  <outline>
    <contour>
      <point x="49" y="0" type="line"/>
      <point x="186" y="0" type="line" smooth="yes"/>
      <point x="265" y="0"/>
      <point x="323" y="23"/>
      <point x="351" y="59" type="curve"/>
      <point x="372" y="25"/>
      <point x="409" y="0"/>
      <point x="464" y="0" type="curve" smooth="yes"/>
      <point x="517" y="0"/>
      <point x="547" y="22"/>
      <point x="567" y="54" type="curve"/>
      <point x="587" y="10"/>
      <point x="632" y="0"/>
      <point x="656" y="0" type="curve"/>
      <point x="656" y="76" type="line"/>
      <point x="628" y="76"/>
      <point x="613" y="98"/>
      <point x="611" y="135" type="curve"/>
      <point x="611" y="141"/>
      <point x="611" y="149"/>
      <point x="611" y="158" type="curve" smooth="yes"/>
      <point x="611" y="169"/>
      <point x="611" y="188"/>
      <point x="608" y="204" type="curve"/>
      <point x="541" y="191" type="line"/>
      <point x="542" y="184"/>
      <point x="542" y="176"/>
      <point x="542" y="169" type="curve" smooth="yes"/>
      <point x="542" y="114"/>
      <point x="521" y="76"/>
      <point x="461" y="76" type="curve" smooth="yes"/>
      <point x="430" y="76"/>
      <point x="397" y="94"/>
      <point x="391" y="135" type="curve"/>
      <point x="393" y="147"/>
      <point x="394" y="161"/>
      <point x="394" y="174" type="curve" smooth="yes"/>
      <point x="394" y="181"/>
      <point x="394" y="189"/>
      <point x="393" y="196" type="curve"/>
      <point x="326" y="188" type="line"/>
      <point x="323" y="121"/>
      <point x="296" y="76"/>
      <point x="195" y="76" type="curve" smooth="yes"/>
      <point x="49" y="76" type="line"/>
    </contour>
  </outline>
</glyph>
<glyph name="uni0844.Init" format="2">
  <advance width="734"/>
  <anchor x="398" y="-49" name="bottom"/>
  <outline>
    <contour>
      <point x="0" y="0" type="curve" smooth="yes"/>
      <point x="29" y="0" type="line" smooth="yes"/>
      <point x="108" y="0"/>
      <point x="159" y="23"/>
      <point x="187" y="59" type="curve"/>
      <point x="208" y="25"/>
      <point x="242" y="0"/>
      <point x="299" y="0" type="curve" smooth="yes"/>
      <point x="351" y="0"/>
      <point x="389" y="24"/>
      <point x="414" y="60" type="curve"/>
      <point x="430" y="28"/>
      <point x="459" y="0"/>
      <point x="520" y="0" type="curve" smooth="yes"/>
      <point x="618" y="0"/>
      <point x="671" y="75"/>
      <point x="671" y="170" type="curve" smooth="yes"/>
      <point x="671" y="189"/>
      <point x="669" y="209"/>
      <point x="664" y="229" type="curve"/>
      <point x="598" y="215" type="line"/>
      <point x="599" y="205"/>
      <point x="600" y="194"/>
      <point x="600" y="184" type="curve" smooth="yes"/>
      <point x="600" y="131"/>
      <point x="584" y="76"/>
      <point x="514" y="76" type="curve" smooth="yes"/>
      <point x="483" y="76"/>
      <point x="454" y="94"/>
      <point x="450" y="131" type="curve"/>
      <point x="452" y="146"/>
      <point x="454" y="157"/>
      <point x="454" y="174" type="curve" smooth="yes"/>
      <point x="454" y="181"/>
      <point x="454" y="194"/>
      <point x="453" y="201" type="curve"/>
      <point x="385" y="193" type="line"/>
      <point x="384" y="126"/>
      <point x="363" y="76"/>
      <point x="295" y="76" type="curve" smooth="yes"/>
      <point x="264" y="76"/>
      <point x="231" y="94"/>
      <point x="225" y="135" type="curve"/>
      <point x="227" y="147"/>
      <point x="228" y="161"/>
      <point x="228" y="174" type="curve" smooth="yes"/>
      <point x="228" y="181"/>
      <point x="228" y="189"/>
      <point x="227" y="196" type="curve"/>
      <point x="159" y="188" type="line"/>
      <point x="159" y="126"/>
      <point x="140" y="76"/>
      <point x="39" y="76" type="curve" smooth="yes"/>
      <point x="0" y="76" type="line" smooth="yes"/>
      <point x="-21" y="76"/>
      <point x="-40" y="62"/>
      <point x="-40" y="38" type="curve" smooth="yes"/>
      <point x="-40" y="14"/>
      <point x="-21" y="0"/>
    </contour>
  </outline>
</glyph>
<glyph name="uni0844.Medi" format="2">
  <advance width="583"/>
  <anchor x="295" y="-49" name="bottom"/>
  <outline>
    <contour>
      <point x="0" y="0" type="curve" smooth="yes"/>
      <point x="29" y="0" type="line" smooth="yes"/>
      <point x="108" y="0"/>
      <point x="159" y="23"/>
      <point x="187" y="59" type="curve"/>
      <point x="208" y="25"/>
      <point x="242" y="0"/>
      <point x="299" y="0" type="curve" smooth="yes"/>
      <point x="352" y="0"/>
      <point x="391" y="25"/>
      <point x="416" y="62" type="curve"/>
      <point x="437" y="27"/>
      <point x="482" y="0"/>
      <point x="563" y="0" type="curve" smooth="yes"/>
      <point x="583" y="0" type="line"/>
      <point x="583" y="76" type="line"/>
      <point x="565" y="76" type="line" smooth="yes"/>
      <point x="505" y="76"/>
      <point x="459" y="96"/>
      <point x="450" y="134" type="curve"/>
      <point x="453" y="147"/>
      <point x="454" y="160"/>
      <point x="454" y="174" type="curve" smooth="yes"/>
      <point x="454" y="181"/>
      <point x="454" y="194"/>
      <point x="453" y="201" type="curve"/>
      <point x="385" y="193" type="line"/>
      <point x="384" y="126"/>
      <point x="363" y="76"/>
      <point x="295" y="76" type="curve" smooth="yes"/>
      <point x="264" y="76"/>
      <point x="231" y="94"/>
      <point x="225" y="135" type="curve"/>
      <point x="227" y="147"/>
      <point x="228" y="161"/>
      <point x="228" y="174" type="curve" smooth="yes"/>
      <point x="228" y="181"/>
      <point x="228" y="189"/>
      <point x="227" y="196" type="curve"/>
      <point x="159" y="188" type="line"/>
      <point x="159" y="126"/>
      <point x="140" y="76"/>
      <point x="39" y="76" type="curve" smooth="yes"/>
      <point x="0" y="76" type="line" smooth="yes"/>
      <point x="-21" y="76"/>
      <point x="-40" y="62"/>
      <point x="-40" y="38" type="curve" smooth="yes"/>
      <point x="-40" y="14"/>
      <point x="-21" y="0"/>
    </contour>
  </outline>
</glyph>
<glyph name="uni0844.Medi_XShort" format="2">
  <advance width="490"/>
  <anchor x="295" y="-49" name="bottom"/>
  <outline>
    <contour>
      <point x="0" y="0" type="curve" smooth="yes"/>
      <point x="29" y="0" type="line" smooth="yes"/>
      <point x="108" y="0"/>
      <point x="159" y="23"/>
      <point x="187" y="59" type="curve"/>
      <point x="208" y="25"/>
      <point x="241" y="0"/>
      <point x="298" y="0" type="curve" smooth="yes"/>
      <point x="351" y="0"/>
      <point x="380" y="22"/>
      <point x="400" y="54" type="curve"/>
      <point x="421" y="10"/>
      <point x="466" y="0"/>
      <point x="490" y="0" type="curve"/>
      <point x="490" y="76" type="line"/>
      <point x="462" y="76"/>
      <point x="447" y="98"/>
      <point x="444" y="135" type="curve"/>
      <point x="445" y="141"/>
      <point x="445" y="149"/>
      <point x="445" y="158" type="curve" smooth="yes"/>
      <point x="445" y="169"/>
      <point x="444" y="188"/>
      <point x="441" y="204" type="curve"/>
      <point x="375" y="191" type="line"/>
      <point x="375" y="184"/>
      <point x="375" y="176"/>
      <point x="375" y="169" type="curve" smooth="yes"/>
      <point x="375" y="114"/>
      <point x="355" y="76"/>
      <point x="295" y="76" type="curve" smooth="yes"/>
      <point x="264" y="76"/>
      <point x="231" y="94"/>
      <point x="225" y="135" type="curve"/>
      <point x="227" y="147"/>
      <point x="228" y="161"/>
      <point x="228" y="174" type="curve" smooth="yes"/>
      <point x="228" y="181"/>
      <point x="228" y="189"/>
      <point x="227" y="196" type="curve"/>
      <point x="159" y="188" type="line"/>
      <point x="159" y="126"/>
      <point x="140" y="76"/>
      <point x="39" y="76" type="curve" smooth="yes"/>
      <point x="0" y="76" type="line" smooth="yes"/>
      <point x="-21" y="76"/>
      <point x="-40" y="62"/>
      <point x="-40" y="38" type="curve" smooth="yes"/>
      <point x="-40" y="14"/>
      <point x="-21" y="0"/>
    </contour>
  </outline>
</glyph>
<glyph name="uni0845.Fina" format="2">
  <advance width="463"/>
  <anchor x="203" y="-49" name="bottom"/>
  <outline>
    <contour>
      <point x="49" y="0" type="line"/>
      <point x="463" y="0" type="line"/>
      <point x="463" y="76" type="line"/>
      <point x="359" y="76" type="line"/>
      <point x="359" y="311" type="line"/>
      <point x="286" y="311" type="line"/>
      <point x="286" y="76" type="line"/>
      <point x="49" y="76" type="line"/>
    </contour>
  </outline>
</glyph>
<glyph name="uni0845.Init" format="2">
  <advance width="289"/>
  <anchor x="83" y="-49" name="bottom"/>
  <outline>
    <contour>
      <point x="0" y="0" type="curve" smooth="yes"/>
      <point x="55" y="0" type="line" smooth="yes"/>
      <point x="145" y="0"/>
      <point x="211" y="33"/>
      <point x="211" y="132" type="curve" smooth="yes"/>
      <point x="211" y="172"/>
      <point x="198" y="250"/>
      <point x="142" y="337" type="curve"/>
      <point x="81" y="293" type="line"/>
      <point x="115" y="232"/>
      <point x="138" y="175"/>
      <point x="138" y="138" type="curve" smooth="yes"/>
      <point x="138" y="95"/>
      <point x="115" y="76"/>
      <point x="53" y="76" type="curve" smooth="yes"/>
      <point x="0" y="76" type="line" smooth="yes"/>
      <point x="-22" y="76"/>
      <point x="-40" y="62"/>
      <point x="-40" y="38" type="curve" smooth="yes"/>
      <point x="-40" y="14"/>
      <point x="-22" y="0"/>
    </contour>
  </outline>
</glyph>
<glyph name="uni0845.Medi" format="2">
  <advance width="286"/>
  <anchor x="68" y="-49" name="bottom"/>
  <outline>
    <contour>
      <point x="0" y="0" type="curve"/>
      <point x="286" y="0" type="line"/>
      <point x="286" y="76" type="line"/>
      <point x="181" y="76" type="line"/>
      <point x="181" y="311" type="line"/>
      <point x="108" y="311" type="line"/>
      <point x="108" y="76" type="line"/>
      <point x="0" y="76" type="line" smooth="yes"/>
      <point x="-21" y="76"/>
      <point x="-39" y="62"/>
      <point x="-39" y="38" type="curve" smooth="yes"/>
      <point x="-39" y="14"/>
      <point x="-21" y="0"/>
    </contour>
  </outline>
</glyph>
<glyph name="uni0846.Fina" format="2">
  <advance width="271"/>
  <anchor x="124" y="-189" name="bottom"/>
  <outline>
    <contour>
      <point x="88" y="-159" type="line"/>
      <point x="161" y="-159" type="line"/>
      <point x="161" y="37" type="line"/>
      <point x="182" y="15"/>
      <point x="217" y="0"/>
      <point x="271" y="0" type="curve"/>
      <point x="271" y="76" type="line"/>
      <point x="234" y="76"/>
      <point x="161" y="78"/>
      <point x="161" y="122" type="curve" smooth="yes"/>
      <point x="161" y="694" type="line"/>
      <point x="88" y="694" type="line"/>
    </contour>
  </outline>
</glyph>
<glyph name="uni0847.Fina" format="2">
  <advance width="787"/>
  <anchor x="394" y="-49" name="bottom"/>
  <outline>
    <contour>
      <point x="158" y="-5" type="curve" smooth="yes"/>
      <point x="241" y="-5"/>
      <point x="460" y="-1"/>
      <point x="525" y="0" type="curve" smooth="yes"/>
      <point x="608" y="1"/>
      <point x="648" y="14"/>
      <point x="667" y="43" type="curve"/>
      <point x="689" y="16"/>
      <point x="717" y="0"/>
      <point x="783" y="0" type="curve" smooth="yes"/>
      <point x="787" y="0" type="line"/>
      <point x="787" y="76" type="line"/>
      <point x="733" y="76"/>
      <point x="721" y="100"/>
      <point x="708" y="145" type="curve" smooth="yes"/>
      <point x="671" y="274"/>
      <point x="611" y="337"/>
      <point x="501" y="337" type="curve" smooth="yes"/>
      <point x="400" y="337"/>
      <point x="219" y="276"/>
      <point x="128" y="207" type="curve" smooth="yes"/>
      <point x="82" y="172"/>
      <point x="59" y="129"/>
      <point x="59" y="88" type="curve" smooth="yes"/>
      <point x="59" y="13"/>
      <point x="117" y="-5"/>
    </contour>
    <contour>
      <point x="175" y="71" type="curve" smooth="yes"/>
      <point x="147" y="71"/>
      <point x="133" y="83"/>
      <point x="133" y="103" type="curve" smooth="yes"/>
      <point x="133" y="119"/>
      <point x="146" y="134"/>
      <point x="161" y="145" type="curve" smooth="yes"/>
      <point x="230" y="198"/>
      <point x="423" y="264"/>
      <point x="490" y="264" type="curve" smooth="yes"/>
      <point x="551" y="264"/>
      <point x="590" y="239"/>
      <point x="615" y="182" type="curve" smooth="yes"/>
      <point x="625" y="159"/>
      <point x="634" y="137"/>
      <point x="634" y="122" type="curve" smooth="yes"/>
      <point x="634" y="79"/>
      <point x="564" y="77"/>
      <point x="538" y="76" type="curve" smooth="yes"/>
      <point x="437" y="73"/>
      <point x="208" y="71"/>
    </contour>
  </outline>
</glyph>
<glyph name="uni0847.Fina_XShort" format="2">
  <advance width="752"/>
  <anchor x="394" y="-49" name="bottom"/>
  <outline>
    <contour>
      <point x="160" y="-5" type="curve" smooth="yes"/>
      <point x="280" y="-5"/>
      <point x="480" y="-1"/>
      <point x="525" y="0" type="curve" smooth="yes"/>
      <point x="608" y="2"/>
      <point x="648" y="14"/>
      <point x="667" y="43" type="curve"/>
      <point x="678" y="17"/>
      <point x="699" y="0"/>
      <point x="741" y="0" type="curve" smooth="yes"/>
      <point x="752" y="0" type="line"/>
      <point x="752" y="76" type="line"/>
      <point x="724" y="76"/>
      <point x="718" y="99"/>
      <point x="707" y="144" type="curve" smooth="yes"/>
      <point x="674" y="273"/>
      <point x="611" y="337"/>
      <point x="501" y="337" type="curve" smooth="yes"/>
      <point x="400" y="337"/>
      <point x="221" y="276"/>
      <point x="128" y="207" type="curve" smooth="yes"/>
      <point x="81" y="172"/>
      <point x="59" y="129"/>
      <point x="59" y="88" type="curve" smooth="yes"/>
      <point x="59" y="12"/>
      <point x="119" y="-5"/>
    </contour>
    <contour>
      <point x="175" y="71" type="curve" smooth="yes"/>
      <point x="147" y="71"/>
      <point x="133" y="83"/>
      <point x="133" y="103" type="curve" smooth="yes"/>
      <point x="133" y="119"/>
      <point x="146" y="134"/>
      <point x="161" y="145" type="curve" smooth="yes"/>
      <point x="230" y="198"/>
      <point x="423" y="264"/>
      <point x="490" y="264" type="curve" smooth="yes"/>
      <point x="551" y="264"/>
      <point x="590" y="239"/>
      <point x="615" y="182" type="curve" smooth="yes"/>
      <point x="625" y="159"/>
      <point x="634" y="137"/>
      <point x="634" y="122" type="curve" smooth="yes"/>
      <point x="634" y="79"/>
      <point x="564" y="77"/>
      <point x="538" y="76" type="curve" smooth="yes"/>
      <point x="436" y="73"/>
      <point x="208" y="71"/>
    </contour>
  </outline>
</glyph>
<glyph name="uni0847.Medi" format="2">
  <advance width="789"/>
  <anchor x="396" y="-49" name="bottom"/>
  <outline>
    <contour>
      <point x="163" y="-5" type="curve" smooth="yes"/>
      <point x="243" y="-5"/>
      <point x="462" y="-1"/>
      <point x="528" y="0" type="curve" smooth="yes"/>
      <point x="611" y="1"/>
      <point x="651" y="14"/>
      <point x="670" y="43" type="curve"/>
      <point x="691" y="16"/>
      <point x="719" y="0"/>
      <point x="785" y="0" type="curve" smooth="yes"/>
      <point x="789" y="0" type="line"/>
      <point x="789" y="76" type="line"/>
      <point x="736" y="76"/>
      <point x="724" y="100"/>
      <point x="711" y="144" type="curve" smooth="yes"/>
      <point x="673" y="274"/>
      <point x="613" y="337"/>
      <point x="503" y="337" type="curve" smooth="yes"/>
      <point x="402" y="337"/>
      <point x="222" y="276"/>
      <point x="131" y="207" type="curve" smooth="yes"/>
      <point x="94" y="179"/>
      <point x="73" y="148"/>
      <point x="65" y="118" type="curve"/>
      <point x="53" y="90"/>
      <point x="33" y="76"/>
      <point x="0" y="76" type="curve" smooth="yes"/>
      <point x="-22" y="76"/>
      <point x="-40" y="62"/>
      <point x="-40" y="38" type="curve" smooth="yes"/>
      <point x="-40" y="14"/>
      <point x="-22" y="0"/>
      <point x="0" y="0" type="curve" smooth="yes"/>
      <point x="37" y="0"/>
      <point x="60" y="12"/>
      <point x="77" y="31" type="curve"/>
      <point x="98" y="2"/>
      <point x="135" y="-5"/>
    </contour>
    <contour>
      <point x="177" y="71" type="curve" smooth="yes"/>
      <point x="149" y="71"/>
      <point x="135" y="83"/>
      <point x="135" y="103" type="curve" smooth="yes"/>
      <point x="135" y="119"/>
      <point x="149" y="134"/>
      <point x="164" y="145" type="curve" smooth="yes"/>
      <point x="232" y="198"/>
      <point x="425" y="264"/>
      <point x="493" y="264" type="curve" smooth="yes"/>
      <point x="554" y="264"/>
      <point x="592" y="239"/>
      <point x="618" y="182" type="curve" smooth="yes"/>
      <point x="628" y="159"/>
      <point x="637" y="137"/>
      <point x="637" y="122" type="curve" smooth="yes"/>
      <point x="637" y="79"/>
      <point x="567" y="77"/>
      <point x="540" y="76" type="curve" smooth="yes"/>
      <point x="439" y="73"/>
      <point x="210" y="71"/>
    </contour>
  </outline>
</glyph>
<glyph name="uni0848.Isol_Long" format="2">
  <advance width="744"/>
  <anchor x="282" y="-49" name="bottom"/>
  <outline>
    <contour>
      <point x="49" y="0" type="line"/>
      <point x="610" y="0" type="line"/>
      <point x="610" y="76" type="line"/>
      <point x="495" y="76" type="line"/>
      <point x="607" y="381" type="line" smooth="yes"/>
      <point x="636" y="459"/>
      <point x="661" y="533"/>
      <point x="661" y="589" type="curve" smooth="yes"/>
      <point x="661" y="670"/>
      <point x="618" y="724"/>
      <point x="539" y="724" type="curve" smooth="yes"/>
      <point x="458" y="724"/>
      <point x="408" y="663"/>
      <point x="379" y="589" type="curve" smooth="yes"/>
      <point x="179" y="76" type="line"/>
      <point x="49" y="76" type="line"/>
    </contour>
    <contour>
      <point x="258" y="76" type="line"/>
      <point x="449" y="562" type="line" smooth="yes"/>
      <point x="469" y="612"/>
      <point x="494" y="651"/>
      <point x="534" y="651" type="curve" smooth="yes"/>
      <point x="576" y="651"/>
      <point x="587" y="617"/>
      <point x="587" y="586" type="curve" smooth="yes"/>
      <point x="587" y="537"/>
      <point x="556" y="452"/>
      <point x="536" y="399" type="curve" smooth="yes"/>
      <point x="412" y="76" type="line"/>
    </contour>
  </outline>
</glyph>
<glyph name="uni0848.Medi" format="2">
  <advance width="586"/>
  <anchor x="173" y="-49" name="bottom"/>
  <outline>
    <contour>
      <point x="0" y="0" type="curve"/>
      <point x="586" y="0" type="line"/>
      <point x="586" y="76" type="line"/>
      <point x="385" y="76" type="line"/>
      <point x="498" y="381" type="line" smooth="yes"/>
      <point x="526" y="458"/>
      <point x="551" y="533"/>
      <point x="551" y="589" type="curve" smooth="yes"/>
      <point x="551" y="670"/>
      <point x="507" y="724"/>
      <point x="428" y="724" type="curve" smooth="yes"/>
      <point x="348" y="724"/>
      <point x="299" y="664"/>
      <point x="270" y="589" type="curve" smooth="yes"/>
      <point x="69" y="76" type="line"/>
      <point x="0" y="76" type="line" smooth="yes"/>
      <point x="-22" y="76"/>
      <point x="-40" y="62"/>
      <point x="-40" y="38" type="curve" smooth="yes"/>
      <point x="-40" y="14"/>
      <point x="-22" y="0"/>
    </contour>
    <contour>
      <point x="148" y="76" type="line"/>
      <point x="339" y="562" type="line" smooth="yes"/>
      <point x="359" y="612"/>
      <point x="383" y="651"/>
      <point x="424" y="651" type="curve" smooth="yes"/>
      <point x="466" y="651"/>
      <point x="477" y="617"/>
      <point x="477" y="586" type="curve" smooth="yes"/>
      <point x="477" y="538"/>
      <point x="445" y="452"/>
      <point x="425" y="399" type="curve" smooth="yes"/>
      <point x="302" y="76" type="line"/>
    </contour>
  </outline>
</glyph>
<glyph name="uni0849.Fina" format="2">
  <advance width="410"/>
  <anchor x="229" y="-49" name="bottom"/>
  <outline>
    <contour>
      <point x="125" y="0" type="curve" smooth="yes"/>
      <point x="410" y="0" type="line"/>
      <point x="410" y="76" type="line"/>
      <point x="130" y="76" type="line"/>
      <point x="144" y="125"/>
      <point x="239" y="240"/>
      <point x="301" y="295" type="curve"/>
      <point x="254" y="339" type="line"/>
      <point x="178" y="280"/>
      <point x="59" y="145"/>
      <point x="59" y="63" type="curve" smooth="yes"/>
      <point x="59" y="17"/>
      <point x="83" y="0"/>
    </contour>
  </outline>
</glyph>
<glyph name="uni084A.Fina" format="2">
  <advance width="664"/>
  <anchor x="338" y="-380" name="bottom"/>
  <outline>
    <contour>
      <point x="313" y="-361" type="curve"/>
      <point x="365" y="-361" type="line"/>
      <point x="448" y="-275"/>
      <point x="550" y="-138"/>
      <point x="597" y="0" type="curve"/>
      <point x="664" y="0" type="line"/>
      <point x="664" y="76" type="line"/>
      <point x="392" y="76" type="line"/>
      <point x="396" y="115"/>
      <point x="466" y="220"/>
      <point x="558" y="292" type="curve"/>
      <point x="510" y="339" type="line"/>
      <point x="439" y="291"/>
      <point x="324" y="151"/>
      <point x="324" y="69" type="curve" smooth="yes"/>
      <point x="324" y="19"/>
      <point x="356" y="0"/>
      <point x="398" y="0" type="curve" smooth="yes"/>
      <point x="521" y="0" type="line"/>
      <point x="486" y="-94"/>
      <point x="393" y="-233"/>
      <point x="349" y="-281" type="curve"/>
      <point x="246" y="-89"/>
      <point x="184" y="70"/>
      <point x="137" y="247" type="curve"/>
      <point x="68" y="228" type="line"/>
      <point x="102" y="76"/>
      <point x="152" y="-45"/>
      <point x="209" y="-168" type="curve" smooth="yes"/>
      <point x="235" y="-225"/>
      <point x="275" y="-299"/>
    </contour>
  </outline>
</glyph>
<glyph name="uni084A.Init" format="2">
  <advance width="622"/>
  <anchor x="288" y="-381" name="bottom"/>
  <outline>
    <contour>
      <point x="261" y="-381" type="curve"/>
      <point x="314" y="-381" type="line"/>
      <point x="390" y="-292"/>
      <point x="505" y="-144"/>
      <point x="556" y="-3" type="curve" smooth="yes"/>
      <point x="561" y="10"/>
      <point x="563" y="21"/>
      <point x="563" y="30" type="curve" smooth="yes"/>
      <point x="563" y="63"/>
      <point x="539" y="76"/>
      <point x="512" y="76" type="curve" smooth="yes"/>
      <point x="342" y="76" type="line"/>
      <point x="346" y="115"/>
      <point x="416" y="220"/>
      <point x="507" y="292" type="curve"/>
      <point x="459" y="339" type="line"/>
      <point x="389" y="291"/>
      <point x="273" y="151"/>
      <point x="273" y="69" type="curve" smooth="yes"/>
      <point x="273" y="19"/>
      <point x="306" y="0"/>
      <point x="349" y="0" type="curve" smooth="yes"/>
      <point x="481" y="0" type="line"/>
      <point x="441" y="-100"/>
      <point x="341" y="-247"/>
      <point x="297" y="-297" type="curve"/>
      <point x="253" y="-198"/>
      <point x="211" y="-102"/>
      <point x="182" y="-51" type="curve" smooth="yes"/>
      <point x="128" y="42"/>
      <point x="67" y="76"/>
      <point x="0" y="76" type="curve" smooth="yes"/>
      <point x="-21" y="76"/>
      <point x="-40" y="62"/>
      <point x="-40" y="38" type="curve" smooth="yes"/>
      <point x="-40" y="14"/>
      <point x="-21" y="0"/>
      <point x="0" y="0" type="curve" smooth="yes"/>
      <point x="40" y="0"/>
      <point x="62" y="-17"/>
      <point x="89" y="-51" type="curve" smooth="yes"/>
      <point x="125" y="-96"/>
      <point x="160" y="-165"/>
      <point x="188" y="-229" type="curve" smooth="yes"/>
      <point x="208" y="-274"/>
      <point x="234" y="-327"/>
    </contour>
  </outline>
</glyph>
<glyph name="uni084A.Medi" format="2">
  <advance width="613"/>
  <anchor x="288" y="-381" name="bottom"/>
  <outline>
    <contour>
      <point x="261" y="-381" type="curve"/>
      <point x="314" y="-381" type="line"/>
      <point x="392" y="-287"/>
      <point x="487" y="-171"/>
      <point x="547" y="0" type="curve"/>
      <point x="613" y="0" type="line"/>
      <point x="613" y="76" type="line"/>
      <point x="341" y="76" type="line"/>
      <point x="346" y="115"/>
      <point x="416" y="220"/>
      <point x="507" y="292" type="curve"/>
      <point x="459" y="339" type="line"/>
      <point x="388" y="291"/>
      <point x="273" y="151"/>
      <point x="273" y="69" type="curve" smooth="yes"/>
      <point x="273" y="19"/>
      <point x="306" y="0"/>
      <point x="348" y="0" type="curve" smooth="yes"/>
      <point x="472" y="0" type="line"/>
      <point x="436" y="-104"/>
      <point x="341" y="-246"/>
      <point x="297" y="-297" type="curve"/>
      <point x="253" y="-196"/>
      <point x="211" y="-99"/>
      <point x="182" y="-48" type="curve" smooth="yes"/>
      <point x="128" y="46"/>
      <point x="67" y="76"/>
      <point x="0" y="76" type="curve" smooth="yes"/>
      <point x="-22" y="76"/>
      <point x="-40" y="62"/>
      <point x="-40" y="38" type="curve" smooth="yes"/>
      <point x="-40" y="14"/>
      <point x="-22" y="0"/>
      <point x="0" y="0" type="curve" smooth="yes"/>
      <point x="40" y="0"/>
      <point x="62" y="-14"/>
      <point x="89" y="-48" type="curve" smooth="yes"/>
      <point x="125" y="-94"/>
      <point x="160" y="-164"/>
      <point x="188" y="-227" type="curve" smooth="yes"/>
      <point x="209" y="-273"/>
      <point x="234" y="-327"/>
    </contour>
  </outline>
</glyph>
<glyph name="uni084B.Fina" format="2">
  <advance width="471"/>
  <anchor x="205" y="-49" name="bottom"/>
  <outline>
    <contour>
      <point x="49" y="0" type="line"/>
      <point x="471" y="0" type="line"/>
      <point x="471" y="76" type="line"/>
      <point x="362" y="76" type="line"/>
      <point x="362" y="694" type="line"/>
      <point x="289" y="694" type="line"/>
      <point x="289" y="76" type="line"/>
      <point x="49" y="76" type="line"/>
    </contour>
  </outline>
</glyph>
<glyph name="uni084B.Init" format="2">
  <advance width="285"/>
  <anchor x="84" y="-49" name="bottom"/>
  <outline>
    <contour>
      <point x="0" y="0" type="curve" smooth="yes"/>
      <point x="187" y="0" type="line"/>
      <point x="187" y="694" type="line"/>
      <point x="114" y="694" type="line"/>
      <point x="114" y="76" type="line"/>
      <point x="0" y="76" type="line" smooth="yes"/>
      <point x="-22" y="76"/>
      <point x="-40" y="62"/>
      <point x="-40" y="38" type="curve" smooth="yes"/>
      <point x="-40" y="14"/>
      <point x="-22" y="0"/>
    </contour>
  </outline>
</glyph>
<glyph name="uni084B.Medi" format="2">
  <advance width="296"/>
  <anchor x="74" y="-49" name="bottom"/>
  <outline>
    <contour>
      <point x="0" y="0" type="curve" smooth="yes"/>
      <point x="296" y="0" type="line"/>
      <point x="296" y="76" type="line"/>
      <point x="188" y="76" type="line"/>
      <point x="188" y="694" type="line"/>
      <point x="114" y="694" type="line"/>
      <point x="114" y="76" type="line"/>
      <point x="0" y="76" type="line" smooth="yes"/>
      <point x="-22" y="76"/>
      <point x="-40" y="62"/>
      <point x="-40" y="38" type="curve" smooth="yes"/>
      <point x="-40" y="14"/>
      <point x="-22" y="0"/>
    </contour>
  </outline>
</glyph>
<glyph name="uni084C.Fina" format="2">
  <advance width="1012"/>
  <anchor x="320" y="-49" name="bottom"/>
  <outline>
    <contour>
      <point x="49" y="0" type="line"/>
      <point x="494" y="0" type="line" smooth="yes"/>
      <point x="587" y="0"/>
      <point x="657" y="48"/>
      <point x="657" y="157" type="curve" smooth="yes"/>
      <point x="657" y="188"/>
      <point x="647" y="216"/>
      <point x="631" y="237" type="curve"/>
      <point x="834" y="237" type="line"/>
      <point x="834" y="179" type="line" smooth="yes"/>
      <point x="834" y="47"/>
      <point x="892" y="0"/>
      <point x="984" y="0" type="curve" smooth="yes"/>
      <point x="1012" y="0" type="line"/>
      <point x="1012" y="76" type="line"/>
      <point x="991" y="76" type="line" smooth="yes"/>
      <point x="946" y="76"/>
      <point x="908" y="82"/>
      <point x="908" y="186" type="curve" smooth="yes"/>
      <point x="908" y="493" type="line"/>
      <point x="834" y="493" type="line"/>
      <point x="834" y="311" type="line"/>
      <point x="312" y="311" type="line"/>
      <point x="351" y="331"/>
      <point x="405" y="369"/>
      <point x="420" y="381" type="curve" smooth="yes"/>
      <point x="504" y="452" type="line"/>
      <point x="457" y="498" type="line"/>
      <point x="272" y="347" type="line" smooth="yes"/>
      <point x="248" y="327"/>
      <point x="214" y="301"/>
      <point x="196" y="292" type="curve"/>
      <point x="196" y="237" type="line"/>
      <point x="498" y="237" type="line" smooth="yes"/>
      <point x="559" y="237"/>
      <point x="583" y="201"/>
      <point x="583" y="157" type="curve" smooth="yes"/>
      <point x="583" y="112"/>
      <point x="558" y="76"/>
      <point x="494" y="76" type="curve" smooth="yes"/>
      <point x="49" y="76" type="line"/>
    </contour>
  </outline>
</glyph>
<glyph name="uni084C.Medi" format="2">
  <advance width="896"/>
  <anchor x="204" y="-49" name="bottom"/>
  <outline>
    <contour>
      <point x="0" y="0" type="curve" smooth="yes"/>
      <point x="378" y="0" type="line" smooth="yes"/>
      <point x="471" y="0"/>
      <point x="542" y="48"/>
      <point x="542" y="157" type="curve" smooth="yes"/>
      <point x="542" y="188"/>
      <point x="532" y="216"/>
      <point x="515" y="237" type="curve"/>
      <point x="719" y="237" type="line"/>
      <point x="719" y="179" type="line" smooth="yes"/>
      <point x="719" y="47"/>
      <point x="771" y="0"/>
      <point x="862" y="0" type="curve" smooth="yes"/>
      <point x="896" y="0" type="line"/>
      <point x="896" y="76" type="line"/>
      <point x="875" y="76" type="line" smooth="yes"/>
      <point x="830" y="76"/>
      <point x="792" y="82"/>
      <point x="792" y="186" type="curve" smooth="yes"/>
      <point x="792" y="493" type="line"/>
      <point x="719" y="493" type="line"/>
      <point x="719" y="311" type="line"/>
      <point x="196" y="311" type="line"/>
      <point x="234" y="331"/>
      <point x="289" y="368"/>
      <point x="304" y="381" type="curve" smooth="yes"/>
      <point x="388" y="452" type="line"/>
      <point x="341" y="498" type="line"/>
      <point x="156" y="347" type="line" smooth="yes"/>
      <point x="132" y="327"/>
      <point x="97" y="301"/>
      <point x="81" y="292" type="curve"/>
      <point x="81" y="237" type="line"/>
      <point x="382" y="237" type="line" smooth="yes"/>
      <point x="444" y="237"/>
      <point x="468" y="201"/>
      <point x="468" y="157" type="curve" smooth="yes"/>
      <point x="468" y="112"/>
      <point x="443" y="76"/>
      <point x="378" y="76" type="curve" smooth="yes"/>
      <point x="0" y="76" type="line" smooth="yes"/>
      <point x="-22" y="76"/>
      <point x="-40" y="62"/>
      <point x="-40" y="38" type="curve" smooth="yes"/>
      <point x="-40" y="14"/>
      <point x="-22" y="0"/>
    </contour>
  </outline>
</glyph>
<glyph name="uni084D.Fina" format="2">
  <advance width="596"/>
  <anchor x="276" y="-380" name="bottom"/>
  <outline>
    <contour>
      <point x="251" y="-361" type="curve"/>
      <point x="303" y="-361" type="line"/>
      <point x="373" y="-273"/>
      <point x="438" y="-142"/>
      <point x="479" y="-10" type="curve" smooth="yes"/>
      <point x="484" y="7"/>
      <point x="490" y="23"/>
      <point x="494" y="39" type="curve"/>
      <point x="512" y="17"/>
      <point x="542" y="1"/>
      <point x="596" y="0" type="curve"/>
      <point x="596" y="76" type="line"/>
      <point x="549" y="76"/>
      <point x="516" y="94"/>
      <point x="509" y="133" type="curve"/>
      <point x="509" y="164"/>
      <point x="508" y="182"/>
      <point x="503" y="202" type="curve"/>
      <point x="437" y="192" type="line"/>
      <point x="438" y="176"/>
      <point x="438" y="146"/>
      <point x="438" y="138" type="curve"/>
      <point x="430" y="19"/>
      <point x="346" y="-177"/>
      <point x="287" y="-271" type="curve"/>
      <point x="213" y="-88"/>
      <point x="170" y="63"/>
      <point x="138" y="247" type="curve"/>
      <point x="68" y="234" type="line"/>
      <point x="96" y="17"/>
      <point x="176" y="-220"/>
    </contour>
  </outline>
</glyph>
<glyph name="uni084D.Init" format="2">
  <advance width="534"/>
  <anchor x="222" y="-380" name="bottom"/>
  <outline>
    <contour>
      <point x="197" y="-368" type="curve"/>
      <point x="247" y="-368" type="line"/>
      <point x="314" y="-272"/>
      <point x="389" y="-143"/>
      <point x="438" y="10" type="curve" smooth="yes"/>
      <point x="456" y="67"/>
      <point x="467" y="125"/>
      <point x="467" y="172" type="curve" smooth="yes"/>
      <point x="467" y="184"/>
      <point x="466" y="233"/>
      <point x="461" y="247" type="curve"/>
      <point x="392" y="237" type="line"/>
      <point x="394" y="221"/>
      <point x="396" y="186"/>
      <point x="396" y="157" type="curve"/>
      <point x="388" y="38"/>
      <point x="296" y="-166"/>
      <point x="236" y="-266" type="curve"/>
      <point x="202" y="-153"/>
      <point x="188" y="-108"/>
      <point x="167" y="-52" type="curve" smooth="yes"/>
      <point x="129" y="51"/>
      <point x="74" y="76"/>
      <point x="0" y="76" type="curve" smooth="yes"/>
      <point x="-22" y="76"/>
      <point x="-40" y="62"/>
      <point x="-40" y="38" type="curve" smooth="yes"/>
      <point x="-40" y="14"/>
      <point x="-22" y="0"/>
      <point x="0" y="0" type="curve" smooth="yes"/>
      <point x="32" y="0"/>
      <point x="55" y="-3"/>
      <point x="79" y="-39" type="curve" smooth="yes"/>
      <point x="91" y="-57"/>
      <point x="107" y="-100"/>
      <point x="129" y="-166" type="curve" smooth="yes"/>
      <point x="146" y="-218"/>
      <point x="169" y="-283"/>
    </contour>
  </outline>
</glyph>
<glyph name="uni084D.Medi" format="2">
  <advance width="558"/>
  <anchor x="225" y="-381" name="bottom"/>
  <outline>
    <contour>
      <point x="201" y="-381" type="curve"/>
      <point x="250" y="-381" type="line"/>
      <point x="318" y="-285"/>
      <point x="398" y="-140"/>
      <point x="441" y="-10" type="curve" smooth="yes"/>
      <point x="446" y="6"/>
      <point x="452" y="22"/>
      <point x="456" y="38" type="curve"/>
      <point x="475" y="16"/>
      <point x="504" y="1"/>
      <point x="558" y="0" type="curve"/>
      <point x="558" y="76" type="line"/>
      <point x="511" y="76"/>
      <point x="478" y="94"/>
      <point x="470" y="131" type="curve"/>
      <point x="471" y="135"/>
      <point x="471" y="139"/>
      <point x="471" y="143" type="curve" smooth="yes"/>
      <point x="471" y="155"/>
      <point x="470" y="188"/>
      <point x="465" y="202" type="curve"/>
      <point x="396" y="192" type="line"/>
      <point x="398" y="176"/>
      <point x="399" y="146"/>
      <point x="399" y="138" type="curve"/>
      <point x="392" y="18"/>
      <point x="300" y="-178"/>
      <point x="240" y="-279" type="curve"/>
      <point x="206" y="-166"/>
      <point x="188" y="-108"/>
      <point x="167" y="-52" type="curve" smooth="yes"/>
      <point x="129" y="51"/>
      <point x="74" y="76"/>
      <point x="0" y="76" type="curve" smooth="yes"/>
      <point x="-22" y="76"/>
      <point x="-40" y="62"/>
      <point x="-40" y="38" type="curve" smooth="yes"/>
      <point x="-40" y="14"/>
      <point x="-22" y="0"/>
      <point x="0" y="0" type="curve" smooth="yes"/>
      <point x="32" y="0"/>
      <point x="55" y="-3"/>
      <point x="79" y="-39" type="curve" smooth="yes"/>
      <point x="91" y="-57"/>
      <point x="107" y="-100"/>
      <point x="129" y="-166" type="curve" smooth="yes"/>
      <point x="146" y="-218"/>
      <point x="173" y="-296"/>
    </contour>
  </outline>
</glyph>
<glyph name="uni084E.Fina" format="2">
  <advance width="1002"/>
  <anchor x="423" y="-49" name="bottom"/>
  <outline>
    <contour>
      <point x="49" y="0" type="line"/>
      <point x="171" y="0" type="line" smooth="yes"/>
      <point x="251" y="0"/>
      <point x="310" y="24"/>
      <point x="337" y="61" type="curve"/>
      <point x="374" y="20"/>
      <point x="422" y="0"/>
      <point x="513" y="0" type="curve" smooth="yes"/>
      <point x="749" y="0" type="line" smooth="yes"/>
      <point x="799" y="0"/>
      <point x="835" y="18"/>
      <point x="863" y="31" type="curve" smooth="yes"/>
      <point x="901" y="49"/>
      <point x="924" y="76"/>
      <point x="924" y="127" type="curve" smooth="yes"/>
      <point x="924" y="228"/>
      <point x="859" y="327"/>
      <point x="727" y="327" type="curve" smooth="yes"/>
      <point x="599" y="327"/>
      <point x="509" y="233"/>
      <point x="438" y="85" type="curve"/>
      <point x="412" y="93"/>
      <point x="384" y="106"/>
      <point x="376" y="135" type="curve"/>
      <point x="378" y="148"/>
      <point x="379" y="161"/>
      <point x="379" y="174" type="curve" smooth="yes"/>
      <point x="379" y="181"/>
      <point x="379" y="189"/>
      <point x="378" y="196" type="curve"/>
      <point x="311" y="188" type="line"/>
      <point x="309" y="121"/>
      <point x="281" y="76"/>
      <point x="180" y="76" type="curve" smooth="yes"/>
      <point x="49" y="76" type="line"/>
    </contour>
    <contour>
      <point x="515" y="76" type="line"/>
      <point x="562" y="177"/>
      <point x="643" y="253"/>
      <point x="729" y="253" type="curve" smooth="yes"/>
      <point x="787" y="253"/>
      <point x="851" y="217"/>
      <point x="851" y="124" type="curve" smooth="yes"/>
      <point x="851" y="82"/>
      <point x="817" y="76"/>
      <point x="790" y="76" type="curve" smooth="yes"/>
    </contour>
    <contour>
      <point x="741" y="0" type="line"/>
      <point x="1002" y="0" type="line"/>
      <point x="1002" y="76" type="line"/>
      <point x="831" y="76" type="line"/>
      <point x="741" y="61" type="line"/>
    </contour>
  </outline>
</glyph>
<glyph name="uni084E.Medi" format="2">
  <advance width="792"/>
  <anchor x="212" y="-49" name="bottom"/>
  <outline>
    <contour>
      <point x="0" y="0" type="curve" smooth="yes"/>
      <point x="2" y="0" type="line" smooth="yes"/>
      <point x="58" y="0"/>
      <point x="100" y="24"/>
      <point x="127" y="61" type="curve"/>
      <point x="163" y="20"/>
      <point x="212" y="0"/>
      <point x="302" y="0" type="curve" smooth="yes"/>
      <point x="539" y="0" type="line" smooth="yes"/>
      <point x="588" y="0"/>
      <point x="623" y="17"/>
      <point x="652" y="31" type="curve" smooth="yes"/>
      <point x="692" y="50"/>
      <point x="714" y="76"/>
      <point x="714" y="127" type="curve" smooth="yes"/>
      <point x="714" y="228"/>
      <point x="649" y="327"/>
      <point x="517" y="327" type="curve" smooth="yes"/>
      <point x="388" y="327"/>
      <point x="299" y="233"/>
      <point x="228" y="85" type="curve"/>
      <point x="201" y="93"/>
      <point x="173" y="106"/>
      <point x="166" y="135" type="curve"/>
      <point x="168" y="148"/>
      <point x="169" y="161"/>
      <point x="169" y="174" type="curve" smooth="yes"/>
      <point x="169" y="181"/>
      <point x="169" y="189"/>
      <point x="168" y="196" type="curve"/>
      <point x="98" y="188" type="line"/>
      <point x="98" y="131"/>
      <point x="77" y="76"/>
      <point x="5" y="76" type="curve" smooth="yes"/>
      <point x="0" y="76" type="line" smooth="yes"/>
      <point x="-22" y="76"/>
      <point x="-40" y="62"/>
      <point x="-40" y="38" type="curve" smooth="yes"/>
      <point x="-40" y="14"/>
      <point x="-22" y="0"/>
    </contour>
    <contour>
      <point x="304" y="76" type="line"/>
      <point x="351" y="177"/>
      <point x="432" y="253"/>
      <point x="518" y="253" type="curve" smooth="yes"/>
      <point x="576" y="253"/>
      <point x="641" y="217"/>
      <point x="641" y="124" type="curve" smooth="yes"/>
      <point x="641" y="82"/>
      <point x="607" y="76"/>
      <point x="579" y="76" type="curve" smooth="yes"/>
    </contour>
    <contour>
      <point x="530" y="0" type="line"/>
      <point x="792" y="0" type="line"/>
      <point x="792" y="76" type="line"/>
      <point x="620" y="76" type="line"/>
      <point x="530" y="61" type="line"/>
    </contour>
  </outline>
</glyph>
<glyph name="uni084F.Medi" format="2">
  <advance width="739"/>
  <anchor x="282" y="-49" name="bottom"/>
  <outline>
    <contour>
      <point x="0" y="0" type="curve" smooth="yes"/>
      <point x="739" y="0" type="line"/>
      <point x="739" y="76" type="line"/>
      <point x="639" y="76" type="line"/>
      <point x="652" y="99"/>
      <point x="660" y="126"/>
      <point x="660" y="157" type="curve" smooth="yes"/>
      <point x="660" y="266"/>
      <point x="589" y="311"/>
      <point x="497" y="311" type="curve" smooth="yes"/>
      <point x="211" y="311" type="line"/>
      <point x="248" y="329"/>
      <point x="293" y="357"/>
      <point x="309" y="368" type="curve" smooth="yes"/>
      <point x="421" y="449" type="line"/>
      <point x="375" y="498" type="line"/>
      <point x="160" y="342" type="line" smooth="yes"/>
      <point x="135" y="324"/>
      <point x="102" y="302"/>
      <point x="81" y="292" type="curve"/>
      <point x="81" y="237" type="line"/>
      <point x="497" y="237" type="line" smooth="yes"/>
      <point x="561" y="237"/>
      <point x="587" y="201"/>
      <point x="587" y="156" type="curve" smooth="yes"/>
      <point x="587" y="111"/>
      <point x="561" y="76"/>
      <point x="497" y="76" type="curve" smooth="yes"/>
      <point x="0" y="76" type="line" smooth="yes"/>
      <point x="-22" y="76"/>
      <point x="-40" y="62"/>
      <point x="-40" y="38" type="curve" smooth="yes"/>
      <point x="-40" y="14"/>
      <point x="-22" y="0"/>
    </contour>
  </outline>
</glyph>
<glyph name="uni0850.Fina" format="2">
  <advance width="726"/>
  <anchor x="352" y="-381" name="bottom"/>
  <outline>
    <contour>
      <point x="327" y="-381" type="curve"/>
      <point x="378" y="-381" type="line"/>
      <point x="460" y="-282"/>
      <point x="551" y="-174"/>
      <point x="619" y="0" type="curve"/>
      <point x="726" y="0" type="line"/>
      <point x="726" y="76" type="line"/>
      <point x="639" y="76" type="line"/>
      <point x="647" y="104"/>
      <point x="649" y="138"/>
      <point x="649" y="167" type="curve" smooth="yes"/>
      <point x="649" y="248"/>
      <point x="596" y="330"/>
      <point x="486" y="330" type="curve" smooth="yes"/>
      <point x="375" y="330"/>
      <point x="314" y="223"/>
      <point x="314" y="143" type="curve" smooth="yes"/>
      <point x="314" y="64"/>
      <point x="354" y="0"/>
      <point x="474" y="0" type="curve" smooth="yes"/>
      <point x="542" y="0" type="line"/>
      <point x="493" y="-123"/>
      <point x="404" y="-243"/>
      <point x="359" y="-296" type="curve"/>
      <point x="231" y="-53"/>
      <point x="189" y="70"/>
      <point x="137" y="247" type="curve"/>
      <point x="68" y="227" type="line"/>
      <point x="100" y="96"/>
      <point x="160" y="-65"/>
      <point x="221" y="-186" type="curve" smooth="yes"/>
      <point x="249" y="-241"/>
      <point x="288" y="-313"/>
    </contour>
    <contour>
      <point x="476" y="76" type="line" smooth="yes"/>
      <point x="396" y="76"/>
      <point x="383" y="118"/>
      <point x="383" y="153" type="curve" smooth="yes"/>
      <point x="383" y="197"/>
      <point x="422" y="258"/>
      <point x="484" y="258" type="curve" smooth="yes"/>
      <point x="534" y="258"/>
      <point x="578" y="224"/>
      <point x="578" y="157" type="curve" smooth="yes"/>
      <point x="578" y="136"/>
      <point x="575" y="101"/>
      <point x="566" y="76" type="curve"/>
    </contour>
  </outline>
</glyph>
<glyph name="uni0850.Init" format="2">
  <advance width="644"/>
  <anchor x="285" y="-381" name="bottom"/>
  <outline>
    <contour>
      <point x="261" y="-381" type="curve"/>
      <point x="312" y="-381" type="line"/>
      <point x="379" y="-301"/>
      <point x="474" y="-189"/>
      <point x="538" y="-16" type="curve" smooth="yes"/>
      <point x="563" y="52"/>
      <point x="575" y="107"/>
      <point x="575" y="167" type="curve" smooth="yes"/>
      <point x="575" y="248"/>
      <point x="521" y="331"/>
      <point x="411" y="331" type="curve" smooth="yes"/>
      <point x="300" y="331"/>
      <point x="239" y="223"/>
      <point x="239" y="143" type="curve" smooth="yes"/>
      <point x="239" y="64"/>
      <point x="281" y="0"/>
      <point x="400" y="0" type="curve" smooth="yes"/>
      <point x="466" y="0" type="line"/>
      <point x="426" y="-112"/>
      <point x="342" y="-245"/>
      <point x="297" y="-297" type="curve"/>
      <point x="253" y="-196"/>
      <point x="210" y="-99"/>
      <point x="181" y="-48" type="curve" smooth="yes"/>
      <point x="127" y="46"/>
      <point x="67" y="76"/>
      <point x="0" y="76" type="curve" smooth="yes"/>
      <point x="-22" y="76"/>
      <point x="-40" y="62"/>
      <point x="-40" y="38" type="curve" smooth="yes"/>
      <point x="-40" y="14"/>
      <point x="-22" y="0"/>
      <point x="0" y="0" type="curve" smooth="yes"/>
      <point x="40" y="0"/>
      <point x="60" y="-14"/>
      <point x="88" y="-48" type="curve" smooth="yes"/>
      <point x="110" y="-74"/>
      <point x="140" y="-124"/>
      <point x="167" y="-184" type="curve" smooth="yes"/>
      <point x="182" y="-218"/>
      <point x="226" y="-311"/>
    </contour>
    <contour>
      <point x="401" y="76" type="line" smooth="yes"/>
      <point x="322" y="76"/>
      <point x="309" y="119"/>
      <point x="309" y="154" type="curve" smooth="yes"/>
      <point x="309" y="198"/>
      <point x="347" y="258"/>
      <point x="410" y="258" type="curve" smooth="yes"/>
      <point x="459" y="258"/>
      <point x="503" y="224"/>
      <point x="503" y="157" type="curve" smooth="yes"/>
      <point x="503" y="136"/>
      <point x="500" y="101"/>
      <point x="492" y="76" type="curve"/>
    </contour>
  </outline>
</glyph>
<glyph name="uni0850.Medi" format="2">
  <advance width="650"/>
  <anchor x="285" y="-381" name="bottom"/>
  <outline>
    <contour>
      <point x="261" y="-381" type="curve"/>
      <point x="312" y="-381" type="line"/>
      <point x="391" y="-288"/>
      <point x="480" y="-163"/>
      <point x="542" y="0" type="curve"/>
      <point x="650" y="0" type="line"/>
      <point x="650" y="76" type="line"/>
      <point x="563" y="76" type="line"/>
      <point x="571" y="104"/>
      <point x="574" y="137"/>
      <point x="574" y="167" type="curve" smooth="yes"/>
      <point x="574" y="248"/>
      <point x="520" y="331"/>
      <point x="410" y="331" type="curve" smooth="yes"/>
      <point x="298" y="331"/>
      <point x="237" y="223"/>
      <point x="237" y="143" type="curve" smooth="yes"/>
      <point x="237" y="64"/>
      <point x="279" y="0"/>
      <point x="399" y="0" type="curve" smooth="yes"/>
      <point x="466" y="0" type="line"/>
      <point x="430" y="-102"/>
      <point x="341" y="-244"/>
      <point x="297" y="-296" type="curve"/>
      <point x="253" y="-196"/>
      <point x="212" y="-100"/>
      <point x="182" y="-48" type="curve" smooth="yes"/>
      <point x="128" y="46"/>
      <point x="67" y="76"/>
      <point x="0" y="76" type="curve" smooth="yes"/>
      <point x="-22" y="76"/>
      <point x="-40" y="62"/>
      <point x="-40" y="38" type="curve" smooth="yes"/>
      <point x="-40" y="14"/>
      <point x="-22" y="0"/>
      <point x="0" y="0" type="curve" smooth="yes"/>
      <point x="40" y="0"/>
      <point x="62" y="-15"/>
      <point x="89" y="-48" type="curve" smooth="yes"/>
      <point x="111" y="-74"/>
      <point x="141" y="-124"/>
      <point x="167" y="-184" type="curve" smooth="yes"/>
      <point x="182" y="-218"/>
      <point x="226" y="-311"/>
    </contour>
    <contour>
      <point x="400" y="76" type="line" smooth="yes"/>
      <point x="320" y="76"/>
      <point x="307" y="119"/>
      <point x="307" y="154" type="curve" smooth="yes"/>
      <point x="307" y="198"/>
      <point x="345" y="258"/>
      <point x="408" y="258" type="curve" smooth="yes"/>
      <point x="458" y="258"/>
      <point x="502" y="224"/>
      <point x="502" y="157" type="curve" smooth="yes"/>
      <point x="502" y="136"/>
      <point x="499" y="101"/>
      <point x="490" y="76" type="curve"/>
    </contour>
  </outline>
</glyph>
<glyph name="uni0851.Fina" format="2">
  <advance width="842"/>
  <anchor x="276" y="-380" name="bottom"/>
  <outline>
    <contour>
      <point x="251" y="-361" type="curve"/>
      <point x="303" y="-361" type="line"/>
      <point x="373" y="-273"/>
      <point x="437" y="-140"/>
      <point x="479" y="-10" type="curve" smooth="yes"/>
      <point x="485" y="7"/>
      <point x="490" y="24"/>
      <point x="494" y="40" type="curve"/>
      <point x="512" y="16"/>
      <point x="539" y="0"/>
      <point x="583" y="0" type="curve" smooth="yes"/>
      <point x="636" y="0"/>
      <point x="674" y="25"/>
      <point x="699" y="62" type="curve"/>
      <point x="721" y="27"/>
      <point x="761" y="0"/>
      <point x="836" y="0" type="curve" smooth="yes"/>
      <point x="842" y="0" type="line"/>
      <point x="842" y="76" type="line"/>
      <point x="839" y="76" type="line" smooth="yes"/>
      <point x="784" y="76"/>
      <point x="743" y="96"/>
      <point x="734" y="134" type="curve"/>
      <point x="736" y="147"/>
      <point x="737" y="160"/>
      <point x="737" y="174" type="curve" smooth="yes"/>
      <point x="737" y="181"/>
      <point x="737" y="195"/>
      <point x="736" y="202" type="curve"/>
      <point x="668" y="194" type="line"/>
      <point x="668" y="127"/>
      <point x="646" y="76"/>
      <point x="579" y="76" type="curve" smooth="yes"/>
      <point x="547" y="76"/>
      <point x="516" y="93"/>
      <point x="509" y="133" type="curve"/>
      <point x="509" y="162"/>
      <point x="509" y="178"/>
      <point x="504" y="196" type="curve"/>
      <point x="437" y="187" type="line"/>
      <point x="438" y="169"/>
      <point x="438" y="146"/>
      <point x="438" y="138" type="curve"/>
      <point x="430" y="19"/>
      <point x="346" y="-177"/>
      <point x="287" y="-271" type="curve"/>
      <point x="213" y="-88"/>
      <point x="170" y="63"/>
      <point x="138" y="247" type="curve"/>
      <point x="68" y="234" type="line"/>
      <point x="96" y="17"/>
      <point x="176" y="-220"/>
    </contour>
  </outline>
</glyph>
<glyph name="uni0851.Init" format="2">
  <advance width="985"/>
  <anchor x="226" y="-381" name="bottom"/>
  <outline>
    <contour>
      <point x="201" y="-381" type="curve"/>
      <point x="251" y="-381" type="line"/>
      <point x="322" y="-280"/>
      <point x="394" y="-144"/>
      <point x="438" y="-10" type="curve" smooth="yes"/>
      <point x="444" y="9"/>
      <point x="450" y="26"/>
      <point x="455" y="42" type="curve"/>
      <point x="472" y="18"/>
      <point x="500" y="0"/>
      <point x="545" y="0" type="curve" smooth="yes"/>
      <point x="597" y="0"/>
      <point x="634" y="24"/>
      <point x="659" y="60" type="curve"/>
      <point x="676" y="29"/>
      <point x="705" y="0"/>
      <point x="766" y="0" type="curve" smooth="yes"/>
      <point x="864" y="0"/>
      <point x="917" y="75"/>
      <point x="917" y="170" type="curve" smooth="yes"/>
      <point x="917" y="189"/>
      <point x="915" y="209"/>
      <point x="910" y="229" type="curve"/>
      <point x="844" y="214" type="line"/>
      <point x="845" y="200"/>
      <point x="846" y="187"/>
      <point x="846" y="174" type="curve" smooth="yes"/>
      <point x="846" y="119"/>
      <point x="824" y="76"/>
      <point x="760" y="76" type="curve" smooth="yes"/>
      <point x="729" y="76"/>
      <point x="700" y="96"/>
      <point x="694" y="126" type="curve"/>
      <point x="698" y="142"/>
      <point x="699" y="157"/>
      <point x="699" y="174" type="curve" smooth="yes"/>
      <point x="699" y="181"/>
      <point x="699" y="195"/>
      <point x="698" y="202" type="curve"/>
      <point x="630" y="194" type="line"/>
      <point x="630" y="127"/>
      <point x="608" y="76"/>
      <point x="541" y="76" type="curve" smooth="yes"/>
      <point x="509" y="76"/>
      <point x="478" y="93"/>
      <point x="471" y="134" type="curve"/>
      <point x="471" y="159"/>
      <point x="470" y="183"/>
      <point x="466" y="196" type="curve"/>
      <point x="399" y="187" type="line"/>
      <point x="399" y="172"/>
      <point x="399" y="152"/>
      <point x="399" y="143" type="curve"/>
      <point x="392" y="23"/>
      <point x="300" y="-174"/>
      <point x="241" y="-274" type="curve"/>
      <point x="204" y="-161"/>
      <point x="188" y="-108"/>
      <point x="167" y="-52" type="curve" smooth="yes"/>
      <point x="128" y="51"/>
      <point x="75" y="76"/>
      <point x="0" y="76" type="curve" smooth="yes"/>
      <point x="-21" y="76"/>
      <point x="-40" y="62"/>
      <point x="-40" y="38" type="curve" smooth="yes"/>
      <point x="-40" y="14"/>
      <point x="-21" y="0"/>
      <point x="0" y="0" type="curve" smooth="yes"/>
      <point x="32" y="0"/>
      <point x="55" y="-3"/>
      <point x="79" y="-39" type="curve" smooth="yes"/>
      <point x="91" y="-57"/>
      <point x="105" y="-100"/>
      <point x="129" y="-166" type="curve" smooth="yes"/>
      <point x="145" y="-211"/>
      <point x="174" y="-296"/>
    </contour>
  </outline>
</glyph>
<glyph name="uni0851.Medi" format="2">
  <advance width="804"/>
  <anchor x="226" y="-381" name="bottom"/>
  <outline>
    <contour>
      <point x="201" y="-381" type="curve"/>
      <point x="251" y="-381" type="line"/>
      <point x="322" y="-280"/>
      <point x="394" y="-144"/>
      <point x="438" y="-10" type="curve" smooth="yes"/>
      <point x="444" y="9"/>
      <point x="450" y="26"/>
      <point x="455" y="42" type="curve"/>
      <point x="472" y="18"/>
      <point x="500" y="0"/>
      <point x="545" y="0" type="curve" smooth="yes"/>
      <point x="598" y="0"/>
      <point x="636" y="25"/>
      <point x="661" y="62" type="curve"/>
      <point x="683" y="27"/>
      <point x="723" y="0"/>
      <point x="798" y="0" type="curve" smooth="yes"/>
      <point x="804" y="0" type="line"/>
      <point x="804" y="76" type="line"/>
      <point x="801" y="76" type="line" smooth="yes"/>
      <point x="746" y="76"/>
      <point x="705" y="96"/>
      <point x="696" y="134" type="curve"/>
      <point x="698" y="147"/>
      <point x="699" y="160"/>
      <point x="699" y="174" type="curve" smooth="yes"/>
      <point x="699" y="181"/>
      <point x="699" y="195"/>
      <point x="698" y="202" type="curve"/>
      <point x="630" y="194" type="line"/>
      <point x="630" y="127"/>
      <point x="608" y="76"/>
      <point x="541" y="76" type="curve" smooth="yes"/>
      <point x="509" y="76"/>
      <point x="478" y="93"/>
      <point x="471" y="134" type="curve"/>
      <point x="471" y="159"/>
      <point x="470" y="183"/>
      <point x="466" y="196" type="curve"/>
      <point x="399" y="187" type="line"/>
      <point x="399" y="172"/>
      <point x="399" y="152"/>
      <point x="399" y="143" type="curve"/>
      <point x="392" y="23"/>
      <point x="300" y="-174"/>
      <point x="241" y="-274" type="curve"/>
      <point x="203" y="-161"/>
      <point x="188" y="-108"/>
      <point x="167" y="-52" type="curve" smooth="yes"/>
      <point x="128" y="51"/>
      <point x="75" y="76"/>
      <point x="0" y="76" type="curve" smooth="yes"/>
      <point x="-21" y="76"/>
      <point x="-40" y="62"/>
      <point x="-40" y="38" type="curve" smooth="yes"/>
      <point x="-40" y="14"/>
      <point x="-21" y="0"/>
      <point x="0" y="0" type="curve" smooth="yes"/>
      <point x="32" y="0"/>
      <point x="55" y="-3"/>
      <point x="79" y="-39" type="curve" smooth="yes"/>
      <point x="91" y="-57"/>
      <point x="105" y="-100"/>
      <point x="129" y="-166" type="curve" smooth="yes"/>
      <point x="145" y="-211"/>
      <point x="174" y="-296"/>
    </contour>
  </outline>
</glyph>
<glyph name="uni0852.Init" format="2">
  <advance width="743"/>
  <anchor x="321" y="-49" name="bottom"/>
  <outline>
    <contour>
      <point x="0" y="0" type="curve" smooth="yes"/>
      <point x="660" y="0" type="line"/>
      <point x="660" y="487" type="line"/>
      <point x="587" y="487" type="line"/>
      <point x="587" y="311" type="line"/>
      <point x="183" y="311" type="line"/>
      <point x="209" y="332"/>
      <point x="236" y="358"/>
      <point x="248" y="372" type="curve" smooth="yes"/>
      <point x="325" y="461" type="line"/>
      <point x="270" y="498" type="line"/>
      <point x="147" y="359" type="line" smooth="yes"/>
      <point x="126" y="335"/>
      <point x="98" y="305"/>
      <point x="81" y="292" type="curve"/>
      <point x="81" y="237" type="line"/>
      <point x="228" y="237" type="line" smooth="yes"/>
      <point x="297" y="237"/>
      <point x="322" y="202"/>
      <point x="322" y="157" type="curve" smooth="yes"/>
      <point x="322" y="112"/>
      <point x="297" y="76"/>
      <point x="228" y="76" type="curve" smooth="yes"/>
      <point x="0" y="76" type="line" smooth="yes"/>
      <point x="-21" y="76"/>
      <point x="-40" y="62"/>
      <point x="-40" y="38" type="curve" smooth="yes"/>
      <point x="-40" y="14"/>
      <point x="-21" y="0"/>
    </contour>
    <contour>
      <point x="348" y="76" type="line"/>
      <point x="380" y="93"/>
      <point x="396" y="120"/>
      <point x="396" y="157" type="curve" smooth="yes"/>
      <point x="396" y="198"/>
      <point x="378" y="223"/>
      <point x="353" y="237" type="curve"/>
      <point x="587" y="237" type="line"/>
      <point x="587" y="76" type="line"/>
    </contour>
  </outline>
</glyph>
<glyph name="uni0853.Fina" format="2">
  <advance width="851"/>
  <anchor x="437" y="-49" name="bottom"/>
  <outline>
    <contour>
      <point x="49" y="0" type="line"/>
      <point x="851" y="0" type="line"/>
      <point x="851" y="76" type="line"/>
      <point x="748" y="76" type="line"/>
      <point x="748" y="487" type="line"/>
      <point x="674" y="487" type="line"/>
      <point x="674" y="311" type="line"/>
      <point x="292" y="311" type="line"/>
      <point x="321" y="333"/>
      <point x="353" y="364"/>
      <point x="366" y="379" type="curve" smooth="yes"/>
      <point x="437" y="460" type="line"/>
      <point x="382" y="498" type="line"/>
      <point x="267" y="367" type="line" smooth="yes"/>
      <point x="245" y="342"/>
      <point x="216" y="313"/>
      <point x="200" y="299" type="curve"/>
      <point x="200" y="237" type="line"/>
      <point x="674" y="237" type="line"/>
      <point x="674" y="76" type="line"/>
      <point x="49" y="76" type="line"/>
    </contour>
  </outline>
</glyph>
<glyph name="uni0853.Medi" format="2">
  <advance width="732"/>
  <anchor x="317" y="-49" name="bottom"/>
  <outline>
    <contour>
      <point x="0" y="0" type="curve" smooth="yes"/>
      <point x="732" y="0" type="line"/>
      <point x="732" y="76" type="line"/>
      <point x="629" y="76" type="line"/>
      <point x="629" y="487" type="line"/>
      <point x="556" y="487" type="line"/>
      <point x="556" y="311" type="line"/>
      <point x="173" y="311" type="line"/>
      <point x="202" y="333"/>
      <point x="234" y="364"/>
      <point x="247" y="379" type="curve" smooth="yes"/>
      <point x="317" y="460" type="line"/>
      <point x="263" y="498" type="line"/>
      <point x="147" y="367" type="line" smooth="yes"/>
      <point x="125" y="343"/>
      <point x="98" y="313"/>
      <point x="81" y="299" type="curve"/>
      <point x="81" y="237" type="line"/>
      <point x="556" y="237" type="line"/>
      <point x="556" y="76" type="line"/>
      <point x="0" y="76" type="line" smooth="yes"/>
      <point x="-22" y="76"/>
      <point x="-40" y="62"/>
      <point x="-40" y="38" type="curve" smooth="yes"/>
      <point x="-40" y="14"/>
      <point x="-22" y="0"/>
    </contour>
  </outline>
</glyph>
<glyph name="uni0854.Fina" format="2">
  <advance width="922"/>
  <anchor x="442" y="-255" name="bottom"/>
  <outline>
    <contour>
      <point x="408" y="-240" type="curve"/>
      <point x="481" y="-240" type="line"/>
      <point x="504" y="-156"/>
      <point x="517" y="-103"/>
      <point x="544" y="0" type="curve"/>
      <point x="922" y="0" type="line"/>
      <point x="922" y="76" type="line"/>
      <point x="813" y="76" type="line"/>
      <point x="834" y="100"/>
      <point x="845" y="130"/>
      <point x="845" y="168" type="curve" smooth="yes"/>
      <point x="845" y="252"/>
      <point x="792" y="337"/>
      <point x="689" y="337" type="curve" smooth="yes"/>
      <point x="559" y="337"/>
      <point x="524" y="217"/>
      <point x="494" y="82" type="curve" smooth="yes"/>
      <point x="475" y="-2"/>
      <point x="464" y="-67"/>
      <point x="452" y="-151" type="curve"/>
      <point x="442" y="-151" type="line"/>
      <point x="438" y="-65"/>
      <point x="428" y="-1"/>
      <point x="414" y="83" type="curve" smooth="yes"/>
      <point x="390" y="223"/>
      <point x="368" y="337"/>
      <point x="230" y="337" type="curve" smooth="yes"/>
      <point x="126" y="337"/>
      <point x="68" y="236"/>
      <point x="68" y="154" type="curve" smooth="yes"/>
      <point x="68" y="59"/>
      <point x="135" y="0"/>
      <point x="250" y="0" type="curve" smooth="yes"/>
      <point x="359" y="0" type="line"/>
      <point x="379" y="-98"/>
      <point x="388" y="-154"/>
    </contour>
    <contour>
      <point x="252" y="76" type="line" smooth="yes"/>
      <point x="173" y="76"/>
      <point x="140" y="110"/>
      <point x="140" y="161" type="curve" smooth="yes"/>
      <point x="140" y="206"/>
      <point x="170" y="264"/>
      <point x="233" y="264" type="curve" smooth="yes"/>
      <point x="310" y="264"/>
      <point x="325" y="172"/>
      <point x="342" y="76" type="curve"/>
    </contour>
    <contour>
      <point x="563" y="76" type="line"/>
      <point x="594" y="189"/>
      <point x="617" y="264"/>
      <point x="691" y="264" type="curve" smooth="yes"/>
      <point x="751" y="264"/>
      <point x="770" y="211"/>
      <point x="770" y="166" type="curve" smooth="yes"/>
      <point x="770" y="115"/>
      <point x="738" y="76"/>
      <point x="657" y="76" type="curve" smooth="yes"/>
    </contour>
  </outline>
</glyph>
<glyph name="uni0855.Fina" format="2">
  <advance width="663"/>
  <anchor x="172" y="-49" name="bottom"/>
  <outline>
    <contour>
      <point x="49" y="0" type="line"/>
      <point x="173" y="0" type="line" smooth="yes"/>
      <point x="263" y="0"/>
      <point x="334" y="33"/>
      <point x="334" y="132" type="curve" smooth="yes"/>
      <point x="334" y="151"/>
      <point x="331" y="180"/>
      <point x="321" y="213" type="curve"/>
      <point x="327" y="213"/>
      <point x="331" y="213"/>
      <point x="335" y="213" type="curve" smooth="yes"/>
      <point x="397" y="213"/>
      <point x="444" y="228"/>
      <point x="486" y="258" type="curve"/>
      <point x="486" y="179" type="line" smooth="yes"/>
      <point x="486" y="47"/>
      <point x="538" y="0"/>
      <point x="630" y="0" type="curve" smooth="yes"/>
      <point x="663" y="0" type="line"/>
      <point x="663" y="76" type="line"/>
      <point x="643" y="76" type="line" smooth="yes"/>
      <point x="598" y="76"/>
      <point x="559" y="82"/>
      <point x="559" y="186" type="curve" smooth="yes"/>
      <point x="559" y="493" type="line"/>
      <point x="486" y="493" type="line"/>
      <point x="486" y="340" type="line"/>
      <point x="452" y="303"/>
      <point x="387" y="285"/>
      <point x="320" y="285" type="curve" smooth="yes"/>
      <point x="312" y="285"/>
      <point x="303" y="285"/>
      <point x="293" y="287" type="curve"/>
      <point x="285" y="303"/>
      <point x="275" y="319"/>
      <point x="264" y="337" type="curve"/>
      <point x="204" y="293" type="line"/>
      <point x="239" y="232"/>
      <point x="261" y="175"/>
      <point x="261" y="138" type="curve" smooth="yes"/>
      <point x="261" y="95"/>
      <point x="238" y="76"/>
      <point x="176" y="76" type="curve" smooth="yes"/>
      <point x="49" y="76" type="line"/>
    </contour>
  </outline>
</glyph>
<glyph name="uni0855.Medi" format="2">
  <advance width="540"/>
  <anchor x="50" y="-49" name="bottom"/>
  <outline>
    <contour>
      <point x="0" y="0" type="curve" smooth="yes"/>
      <point x="50" y="0" type="line" smooth="yes"/>
      <point x="140" y="0"/>
      <point x="211" y="33"/>
      <point x="211" y="132" type="curve" smooth="yes"/>
      <point x="211" y="151"/>
      <point x="208" y="180"/>
      <point x="198" y="213" type="curve"/>
      <point x="204" y="213"/>
      <point x="208" y="213"/>
      <point x="212" y="213" type="curve" smooth="yes"/>
      <point x="274" y="213"/>
      <point x="321" y="228"/>
      <point x="363" y="258" type="curve"/>
      <point x="363" y="179" type="line" smooth="yes"/>
      <point x="363" y="47"/>
      <point x="415" y="0"/>
      <point x="507" y="0" type="curve" smooth="yes"/>
      <point x="540" y="0" type="line"/>
      <point x="540" y="76" type="line"/>
      <point x="520" y="76" type="line" smooth="yes"/>
      <point x="475" y="76"/>
      <point x="436" y="82"/>
      <point x="436" y="186" type="curve" smooth="yes"/>
      <point x="436" y="493" type="line"/>
      <point x="363" y="493" type="line"/>
      <point x="363" y="340" type="line"/>
      <point x="329" y="303"/>
      <point x="264" y="285"/>
      <point x="197" y="285" type="curve" smooth="yes"/>
      <point x="188" y="285"/>
      <point x="180" y="285"/>
      <point x="170" y="287" type="curve"/>
      <point x="162" y="303"/>
      <point x="152" y="319"/>
      <point x="141" y="337" type="curve"/>
      <point x="81" y="293" type="line"/>
      <point x="116" y="232"/>
      <point x="138" y="175"/>
      <point x="138" y="138" type="curve" smooth="yes"/>
      <point x="138" y="95"/>
      <point x="115" y="76"/>
      <point x="53" y="76" type="curve" smooth="yes"/>
      <point x="0" y="76" type="line" smooth="yes"/>
      <point x="-22" y="76"/>
      <point x="-40" y="62"/>
      <point x="-40" y="38" type="curve" smooth="yes"/>
      <point x="-40" y="14"/>
      <point x="-22" y="0"/>
    </contour>
  </outline>
</glyph>
